/* XPM */
static char * icon_xpm[] = {
"64 64 18 1",
" 	c None",
".	c #000000",
"+	c #004888",
"@	c #0070B0",
"#	c #303860",
"$	c #40B0E8",
"%	c #503050",
"&	c #FFFFFF",
"*	c #604060",
"=	c #68B0E8",
"-	c #88A070",
";	c #A8C8E0",
">	c #D8B050",
",	c #D8B858",
"'	c #F0F0D8",
")	c #F0F8F8",
"!	c #F8F890",
"~	c #F8F8F8",
"                                                                ",
"                                                                ",
"                                                                ",
"                                                                ",
"                                                                ",
"                                                                ",
"                                                                ",
"                                                                ",
"                                 =;==                           ",
"                   =$@@@@@==;@@@@@@@@@@@$=                      ",
"            $@@@@@@@@@@@=);)))))===$$$@$@@@@                    ",
"           @$$@$$=);$$$=);)))));)@$=$$=@$$$@@@                  ",
"          @@$$$$=);$$$=);)~';;;;*=@$$$@$$$$$=;;@                ",
"          @@$$@$);$$$=);))'''!',,**=;$$$$$$$;)))@@              ",
"         =@;$@@)=@$$=);))'''!',,,,**@*$$$$$$))));@@             ",
"         =@=$=)=@@@@);)~~''!',,,,,,,@,*$*$$=))~)=$@             ",
"         @@$=)=@@@$)=))~''!',,,,,,,,@-,*,*$;));;@$@             ",
"         @$=);@@@@);))~;'!',,,,,,,,,@-*,,*$~;))=$$$@            ",
"         @=);$$@$)=))~!'!',,,,,,,,,,@-,,,,-~)))$$$$$@           ",
"         @==$$$=)=)));'!',,,,,,,,,,,@-,,,,';));$$$$$@           ",
"         @@@$$=);)));'!',,,,,,,,,,,,@-,,,,~-))$$$$$$@           ",
"         @$@@=)))))=;!',,,,,,,,....,@-,,,!~~))$$$$$$@           ",
"         @$$@)))))=;;',....,,,.&&&&.@-,,,'!')=$$$$$$@           ",
"         @$=);)));)=;,.&&&&.,.&&&&&.@-,,,~!);$$$$$$$@           ",
"         @=);;)););;@*.&&&&.,.&&&&&&##..!;~;$$$$$$$$@           ",
"         @);))););)@@@.&&&&&..&&&&&&#='*)-'=@$$$$$$$@           ",
"         @;;))=);)$$**.&&&&&..&&&&&&#=~*)=)$+@$$$$$$@           ",
"         ;;));;;)$$$**.&&&&&.~.&&&&&#**;;~;*$+@$$$$$@           ",
"         ;)););;$$$$*~..&&&.~'.&&&&.=@*~*~~*@$+@$$$$@           ",
"         =);;;)@$$$$*'~'...~'~'....~#@*~~~**+$$+@$$$@           ",
"         $=;;)$@@$$$****%%*'*'~'~'~*;@)'~'*+++$$+@$$@           ",
"         $;=)@$$@$$$$$*%%%*~'*'~'~*%;@)~~~*++++$$+@$@           ",
"         @;;@@@$@@$$$$$*%%%*~'~'~*%%;@;;;**+++++$$+$$           ",
"         =)@@@@$$@@$$$$*%%%%*~'~**%%;@'~-*$++++++@$;=           ",
"         @@@@@@@$@@$$$$@*%%*%***%%%~)='~*$$$++++++@)$           ",
"         @@@@@@@$$@$$$$@@*%*%*%%*%~~~=~*$$$$$$++++==@           ",
"         @@@@@@@$$@@$$$$@*%*%*%*%~~~';'=@$$$$$$+++)+=           ",
"         @$@@@@@@$$@$$$$$*%%**%%'~~'~))++@$$$$$$+@;@;           ",
"         @@$@@@@@@$@@$$$$*%%**%'~~'~~~-+++@$$$$$$;@==           ",
"         @$$@@@@@@$$@$$$$*%%%*~~~'~~'$#++++@$$$$=)+;=           ",
"         @$$$@@@@@@$@@$$$*%%~~~~'~~''+#+++++@$$$;;;             ",
"         @@$$@@@@@@@$@@$$*%~'~~'~~~'%+%++++++@$$);  =           ",
"         @@$$$@@@@@@$@@$$=';));;~~-**++@+++++++;;;  +           ",
"         @@$$$$@@@@@@$@$=);)~'~~~%%%*+#$+++++++)=   +           ",
"         @@$$$$@@@@@@$@$';))'~~)%%%**+#%$++++++;@  ;+$          ",
"         @@$$$$$@@@@@@$';))'~~~%%%*%*+#%$$@+++;@==;$@;          ",
"         =@$$$$$@@@@@=);));'''%%%*%***%%$$$@++)+);$=@           ",
"         ;@$$$$$$@@@@))))~~'~*%******#+$$@@++==+;;$@$           ",
"          ;;$=$$$@@@;;))~~~~*********@++@@@@@)$;;;$+;           ",
"          $@$$$@@@@;=)))))=@***@****@@$@+@$$=;$);@+@$$$$        ",
"           $+@@@@@);)))));$$$$$@+@@@@@@$@+@@;@+=@$$@$$$$;       ",
"        $@@$@++++;;))));;@@@@@@++@$$@@@@@@@+=@@$$$$$@$$=;       ",
"       $$$$$$@@@@+@@++++++++++@@@@++++++@@@@$$$$$$$$@$=;        ",
"         =@$@$$$$$$$$$$$$@@@@@$$@@@@@@@$$@$$$$$$$$$$@$=         ",
"          $@@$$$$$$$$$$$$$$$$$$$@@$$$$$$$@$$$$$$$$=             ",
"                  =$$$==$==$$$$$$@@$$$$$$$                      ",
"                                ==@$$=                          ",
"                                                                ",
"                                                                ",
"                                                                ",
"                                                                ",
"                                                                ",
"                                                                ",
"                                                                "};
