/* XPM */
static char * arch_xpm[] = {
"28 24 14 1",
" 	c None",
".	c #FFFFFF",
"+	c #1692D1",
"@	c #1792D1",
"#	c #1692D0",
"$	c #1793D1",
"%	c #1592D0",
"&	c #1693D1",
"*	c #1D95D1",
"=	c #1B94D1",
"-	c #1894D0",
";	c #1E95D2",
">	c #1792CF",
",	c #1693D0",
"............................",
".............+@.............",
".............##.............",
"............$$$$............",
"............$$$$............",
"...........$$$$$$...........",
"...........$$$$$$...........",
".............$$$$$..........",
"..........%&..$$$$..........",
".........$$$$+#$$$$.........",
".........$$$$$$$$$$.........",
"........*$$$$$$$$$$$........",
"........#$$$$$$$$$$$........",
".......=$$$$$$$$$$$$$.......",
".......$$$$$$..$$$$$#.......",
"......-$$$$$....$$..$;......",
"......#$$$#$....$$$$........",
".....>$$$$#......$$&$$......",
".....#$$$$#......$$$$$$.....",
"....,$$$$#........+$$$$$....",
"...$$$$&$...........%$$$$...",
"...$$$$..............$$#@...",
"..$$$..................$$$..",
"............................"};
