/* XPM */
static char * arch_xpm[] = {
"28 24 146 2",
"  	c None",
". 	c #BAB9B9",
"+ 	c #93AFBE",
"@ 	c #9CB3BE",
"# 	c #B7B8B9",
"$ 	c #55A0C6",
"% 	c #6AA8C6",
"& 	c #9AB1BD",
"* 	c #2997CD",
"= 	c #3E9ECD",
"- 	c #A9B6BC",
"; 	c #6DA7C5",
"> 	c #1E96D1",
", 	c #2498D2",
"' 	c #81AEC5",
") 	c #AAB5BC",
"! 	c #45A0CE",
"~ 	c #2599D3",
"{ 	c #2499D3",
"] 	c #56A5CE",
"^ 	c #B0B7BA",
"/ 	c #8EB1C2",
"( 	c #2F9DD4",
"_ 	c #2C9DD5",
": 	c #2A9CD4",
"< 	c #35A0D5",
"[ 	c #8EB3C5",
"} 	c #B2B6B9",
"| 	c #84AFC5",
"1 	c #5DA8CC",
"2 	c #33A0D6",
"3 	c #319FD6",
"4 	c #64ABCF",
"5 	c #B2B7BA",
"6 	c #8AB2C5",
"7 	c #43A5D7",
"8 	c #5AA9CF",
"9 	c #4AA5D3",
"0 	c #38A2D6",
"a 	c #36A1D7",
"b 	c #41A4D6",
"c 	c #93B4C5",
"d 	c #B0B7BB",
"e 	c #66ADD1",
"f 	c #46A9DA",
"g 	c #44A7D9",
"h 	c #45A6D7",
"i 	c #3FA5D7",
"j 	c #3DA4D8",
"k 	c #3BA4D8",
"l 	c #69ADCF",
"m 	c #B3B7BA",
"n 	c #8EB4C7",
"o 	c #51ADDB",
"p 	c #4BABDB",
"q 	c #41A6D9",
"r 	c #37A1D7",
"s 	c #309ED5",
"t 	c #329FD6",
"u 	c #3FA4D6",
"v 	c #91B3C5",
"w 	c #AFB7BC",
"x 	c #6DB1D3",
"y 	c #40A6D9",
"z 	c #2B9CD5",
"A 	c #1C95D2",
"B 	c #1793D1",
"C 	c #1A94D1",
"D 	c #4FA2CB",
"E 	c #7DADC5",
"F 	c #2F9DD3",
"G 	c #1994D1",
"H 	c #1692CF",
"I 	c #389ACB",
"J 	c #3699CB",
"K 	c #1B92D0",
"L 	c #7BABC3",
"M 	c #A3B3BC",
"N 	c #3B9BCA",
"O 	c #5FA3C5",
"P 	c #ADB5BA",
"Q 	c #53A0C7",
"R 	c #419DC9",
"S 	c #AAB5BB",
"T 	c #69A6C3",
"U 	c #2B97CC",
"V 	c #9DB2BC",
"W 	c #90AFBE",
"X 	c #2396CF",
"Y 	c #1792D0",
"Z 	c #73A8C2",
"` 	c #9BB1BD",
" .	c #3198CC",
"..	c #439DCA",
"+.	c #B4B8BA",
"@.	c #AFB6BA",
"#.	c #1893D0",
"$.	c #2396CD",
"%.	c #469DC9",
"&.	c #A4B3BB",
"*.	c #61A4C5",
"=.	c #499EC8",
"-.	c #B3B7B9",
";.	c #3F9BCA",
">.	c #489EC8",
",.	c #A3B3BB",
"'.	c #90AFBF",
").	c #2896CD",
"!.	c #1792CF",
"~.	c #62A4C6",
"{.	c #B0B6BA",
"].	c #59A2C7",
"^.	c #2695CD",
"/.	c #5CA2C5",
"(.	c #A9B4BA",
"_.	c #B6B8B9",
":.	c #55A1C6",
"<.	c #2095CF",
"[.	c #4A9FC9",
"}.	c #78A9C3",
"|.	c #9FB2BC",
"1.	c #B2B7B9",
"2.	c #B1B6B9",
"3.	c #71A7C2",
"4.	c #439CC9",
"5.	c #1C93D0",
"6.	c #63A5C4",
"7.	c #B8B9B9",
"8.	c #B2BBBD",
"9.	c #B9B9B9",
"0.	c #85ACC0",
"a.	c #2996CD",
"b.	c #89AEC0",
"c.	c #80AAC0",
"d.	c #4B9EC9",
"e.	c #3098CD",
"f.	c #93B0BF",
"g.	c #B8B8B9",
"h.	c #B1B6BA",
"i.	c #81ABC0",
"j.	c #86ADC0",
"k.	c #B5B7B9",
"l.	c #B1B7BA",
"m.	c #7DAAC1",
"n.	c #87ACBF",
"o.	c #AEB6BA",
". . . . . . . . . . . . . . . . . . . . . . . . . . . . ",
". . . . . . . . . . . . . . . . . . . . . . . . . . . . ",
". . . . . . . . . . . . . + @ . . . . . . . . . . . . . ",
". . . . . . . . . . . . # $ % . . . . . . . . . . . . . ",
". . . . . . . . . . . . & * = - . . . . . . . . . . . . ",
". . . . . . . . . . . . ; > , ' . . . . . . . . . . . . ",
". . . . . . . . . . . ) ! ~ { ] ^ . . . . . . . . . . . ",
". . . . . . . . . . . / ( _ : < [ . . . . . . . . . . . ",
". . . . . . . . . . } | 1 2 3 3 4 5 . . . . . . . . . . ",
". . . . . . . . . . 6 7 8 9 0 a b c . . . . . . . . . . ",
". . . . . . . . . d e f g h i j k l m . . . . . . . . . ",
". . . . . . . . . n o p q r 3 s t u v . . . . . . . . . ",
". . . . . . . . w x y z A B B B B C D d . . . . . . . . ",
". . . . . . . . E F G B H I J B B B K L . . . . . . . . ",
". . . . . . . M N B B H O P M Q B B B R S . . . . . . . ",
". . . . . . . T H B B U V . . W X B B Y Z . . . . . . . ",
". . . . . . `  .B B B ..+.. . @.I B #.$.%.&.. . . . . . ",
". . . . . . *.H B B B =.# . . -.;.B B U >.,.. . . . . . ",
". . . . . '.).B B !.* ~.} . . {.].^.H B #./.(.. . . . . ",
". . . . _.:.B <.[.}.|.1.. . . . 2.& 3.4.5.H 6.7.8.9.. . ",
". . . . 0.a.Q b.} . . . . . . . . . . @.c.d.e.f.8.g.. . ",
". . . h.i.j.k.. . . . . . . . . . . . . . l.m.n.g.. . . ",
". . . . 5 . . . . . . . . . . . . . . . . . . o.. . . . ",
". . . . . . . . . . . . . . . . . . . . . . . . . . . . "};
