/* XPM */
static char * billD_4_xpm[] = {
"24 38 3 1",
" 	c None",
".	c #ff0000",
"X	c #bf3f5f",
"            ..          ",
"            ..       .. ",
"            ..      ....",
"           ...     .....",
" .. .      ..      ...  ",
"  ...      .      ..    ",
"   ..      .      .     ",
"    .      .     ..     ",
"                 .      ",
"..   .          .       ",
"                        ",
"                        ",
"                        ",
"                        ",
"                 ..     ",
"                    ....",
"                     ...",
"                      ..",
"                        ",
"                        ",
"   .  .                 ",
" ...           .        ",
"..      .        .      ",
"..                 .    ",
".                       ",
"    ..                  ",
"    .            .   .. ",
"    .                 . ",
"   .              .   ..",
"  ..    .         .    .",
"  ..    .         X    .",
"   .           .        ",
"               .   .    ",
"               .X   ..  ",
"       .      ...   X.  ",
"      ..   .  ...   .X  ",
"      ..   .   .        ",
"           .   .        "};
