/* XPM */
static char * billL_1_xpm[] = {
"24 38 19 1",
" 	c None",
".	c #5D3C5D",
"+	c #D0D081",
"@	c #5A395A",
"#	c #CDCD7F",
"$	c #CECE80",
"%	c #CFCF80",
"&	c #D0D084",
"*	c #D0D082",
"=	c #56563B",
"-	c #D2D289",
";	c #CACA7D",
">	c #000000",
",	c #FFFFFF",
"'	c #FFFFF7",
")	c #DEDEBD",
"!	c #FFFBF3",
"~	c #DFDFBE",
"{	c #292929",
"      ........          ",
"    ..++++++++...       ",
"   .+++++++++++++..     ",
"  .++++++++++++++++..   ",
"  .+++++++++++++++.++.  ",
"  @@++++++++++++++@+++@ ",
" @++++++++++++++++++++@ ",
"@++++++++++++++++++++++@",
"@++++++++++##$#++++++++@",
"@++%%$%+++%&&&*%+++++++@",
"@+%=**-%+;&&**&$+++++++@",
" @>>>>>>+>>>>>>>>>>>+@+@",
"  >,,,,,>>,,,,,,>>>@+@@ ",
"..>,,,,,>>,,,,,,>>'@@@  ",
"..>>>>>>>'>>>>>>>')@....",
".!>>@)')')')')')')@~.~!.",
".~!~>@)')')')')'@@@!~!..",
"....{{.~.~!~!~!.{{.~!~. ",
"  .{{{.!~.~!~!.{{{.!~!. ",
"   .{{{.!~!~!.{{{{..... ",
"   .{{{{.!~!..{{{{{{..  ",
"    .{{.{...{{{{{{{..   ",
"     .{.{.{{.{{{{{{.    ",
"     .{.{.{.{{{{{{.     ",
"     .{{..{.{{{{{{.     ",
"     .{{...{{{{{{{.     ",
"     .{{{..{{{{{{{.     ",
"     .{{{.{{{{{{{{.     ",
"     .{{{.{{{{{{{..     ",
"      ............      ",
"       .{{{{{{{{.       ",
"       .{{{{{{{{.       ",
"       .{{.{{{{.        ",
"        .{{.{{{.        ",
"        .{{.{{{.        ",
"      ...........       ",
"     .............      ",
"      ...........       "};
