/* XPM */
static char * billR_1_xpm[] = {
"24 38 22 1",
" 	c None",
".	c #5D3C5D",
"+	c #D0D081",
"@	c #5A395A",
"#	c #CDCD7F",
"$	c #CECE80",
"%	c #CFCF80",
"&	c #D0D082",
"*	c #D0D084",
"=	c #CACA7D",
"-	c #D2D289",
";	c #56563B",
">	c #000000",
",	c #FFFFFF",
"'	c #FFFFF7",
")	c #DEDEBD",
"!	c #765B76",
"~	c #FFFBF3",
"{	c #DFDFBE",
"]	c #583958",
"^	c #E0E0C0",
"/	c #292929",
"          ........      ",
"       ...++++++++..    ",
"     ..+++++++++++++.   ",
"   ..++++++++++++++++.  ",
"  .++.+++++++++++++++.. ",
" .+++.++++++++++++++..+.",
" .+++++++++++++++++++++@",
"@++++++++#$##++++++++++@",
"@+++++++%&***%+++%$%%++@",
"@+++++++$*&&**=+%-&&;%+@",
"@+@+>>>>>>>>>>>+>>>>>>@.",
".@@+@>>>,,,,,,>>,,,,,>. ",
" .@@@'>>,,,,,,>>,,,,,>  ",
"  ..@)'>>>>>>>'>>>>>>>..",
".....@)')')')')')')!,...",
".~{.{@@@')')')')')@,].~.",
"..~{~...~')''{~{~...^~{.",
" .~{~.//.{~{~{~.~.//....",
" .{~{.///.{~{~.~{.///.  ",
" .....////.{~{~{.///.   ",
"  ..//////..{~{.////.   ",
"   ..///////..././/.    ",
"    .//////.//././.     ",
"     .//////./././.     ",
"     .//////./..//.     ",
"     .///////...//.     ",
"     .///////..///.     ",
"     .////////.///.     ",
"     ..///////.///.     ",
"      ............      ",
"       .////////.       ",
"       .////////.       ",
"        .////.//.       ",
"        .///.//.        ",
"        .///.//.        ",
"       ...........      ",
"      .............     ",
"       ...........      "};
