/* XPM */
static char * billL_0_xpm[] = {
"24 38 8 1",
" 	c None",
".	c #5D3C5D",
"+	c #D0D081",
"@	c #000000",
"#	c #FFFFFF",
"$	c #FFFBF3",
"%	c #DFDFBE",
"&	c #292929",
"      .......           ",
"      .++++++..         ",
"   ...++++++++....      ",
"  .+++++++++++++++. .   ",
"  .++++++++++++++++.+.  ",
"  ..++++++++++++++.++.  ",
" .++++++++++++++++++++. ",
"..+++++++++++++++++++++.",
".++++++++++++++++++++++.",
".++++++++++@@@@++++++++.",
".++@@@@+++@####@+++++++.",
".+@####@+@#####@+++++.+.",
" .@####@+@######@@@@+.+.",
"  @#####@@######@$%.... ",
"..@#####@@######@%$..   ",
"..@#####@$@#####@.......",
".$@@###@$%@####@$..%.%$.",
".%$%@@@$%$%@@@@$...$%$..",
"....&&.%.%$%$%$.&&.%$%. ",
"  .&&&.$%.%$%$.&&&.$%$. ",
"   .&&&.$%$%$.&&&&..... ",
"   .&&&&.$%$..&&&&&&..  ",
"    .&&.&...&&&&&&&..   ",
"     .&.&.&&.&&&&&&.    ",
"     .&.&.&.&&&&&&.     ",
"     .&&..&.&&&&&&.     ",
"     .&&...&&&&&&&.     ",
"     .&&&..&&&&&&&.     ",
"     .&&&.&&&&&&&&.     ",
"     .&&&.&&&&&&&..     ",
"      ............      ",
"       .&&&&&&&&&&.     ",
"    .. .&&..&&&&&...    ",
"   ....&&&&....&....    ",
"   ......&&.  ......    ",
"   ........  ......     ",
"    .......  ......     ",
"       ...    ....      "};
