/* XPM */
static char * billD_1_xpm[] = {
"24 38 11 1",
" 	c None",
".	c #5D3C5D",
"+	c #D0D081",
"@	c #000000",
"#	c #FFFFF7",
"$	c #DFDFBE",
"%	c #FF0000",
"&	c #FFFFFF",
"*	c #0C00FF",
"=	c #9F3F5F",
"-	c #292929",
"      .     .           ",
"     .... ...           ",
" ... .+++.++. ....      ",
" .+++.+++.++..++.....   ",
"...++++@++++++++..++.   ",
".+++++@++++++++++++.    ",
".+++++++++++++++++.   @@",
" .++++++++++++++++...@#@",
" .+++++++++++++++++++@$@",
".@@@+++%+++&&+++++++.@#@",
".@&@&+++%%%$&$+++++..@#@",
".@&@$&*+%&&*$&$&+++. @@@",
".@$@&$&$&&$&&$$%&$.+.  @",
" @&@$&&=$$&$$&&%$&.+.%% ",
" @@@&&=$&&$&&$&%%.%%%.%=",
" @@&$$&=$&&$$%%% %%..   ",
".@ $&&$&&$$&&%% == .$.  ",
" ..----... $ %%==.. . . ",
"$.%%%--.... .%==-. $ $. ",
" %==%%%% $ .%==--.$ $ . ",
"$.--===%%.%%%=----.$ $. ",
"..----=%%%%%==--%%%%%%  ",
"    .-%=%%%=%%%%%%%%%%% ",
"  %%%%%%%%%%%%%---=====%",
"======%%%%%%%--%%%%    =",
"     =.%%%%%%=%==%%%%%  ",
"  %%%%-==%%%%%%--===%%% ",
" %%%  ==%-=%%=%--. ===%%",
"%%   %=-.%=%=%---.   ==%",
"    %=  %=%%=%%-..    = ",
"   %  %=%-%=%=%..-.     ",
" ..  .-=--%=.=----.  .. ",
".... .--..%=.=-----. ...",
".....------= =.-----....",
" ....-----.% = .---.... ",
" .....--.. %    ....... ",
"  ......   %     .....  ",
"  ....           ...    "};
