/* XPM */
static char * billA_7_xpm[] = {
"58 41 15 1",
" 	c None",
".	c #5A395A",
"+	c #D0D081",
"@	c #CFCF80",
"#	c #CECE80",
"$	c #D0D084",
"%	c #D0D082",
"&	c #56563B",
"*	c #D2D289",
"=	c #CACA7D",
"-	c #000000",
";	c #FFFFFF",
">	c #FFFFF7",
",	c #DEDEBD",
"'	c #292929",
"                                                          ",
"                                                          ",
"                                                          ",
"                                       ........           ",
"                                     ..++++++++...        ",
"                                    .+++++++++++++..      ",
"                                   .++++++++++++++++..    ",
"                                   .+++++++++++++++.++.   ",
"                                   ..++++++++++++++.+++.  ",
"                                  .++++++++++++++++++++.  ",
"                                 .++++++++++++++++++++++. ",
"                                 .++++++++++++++++++++++. ",
"                                 .++@@#@+++@$$$%@+++++++. ",
"                                 .+@&%%*@+=$$%%$#+++++++. ",
"                                  .------+-----------+.+. ",
"                                   -;;;;;-->;;;;;---.+..  ",
"                                   -;;;;;--;;;;;;-->...   ",
"                                   ------->------->,.     ",
"                                     .,>,>,>,>,>,>,.      ",
"                                      .,>,>,>,>,>...      ",
"                                       .,.,>.>,>,.        ",
"                                       .>,..>,>.>.        ",
"                                       ..>,>,>....        ",
"                                     ..''.>,>..'''.       ",
"                                     .''.'....'''''.      ",
"                                    .'.'.'.''.''''''.     ",
"                                    .'.'.'.'.''''''''.    ",
"                                   .''.''..'.''.'''''.    ",
"                                   ..'.''...''''.'''''.   ",
"                                  .>,..'''..''''.'''...   ",
"                                  ., ,.'''.''''''.'.,>.   ",
"                                   ., .'''.'''''''.,>,>.  ",
"                                    .. .............,>.   ",
"                                        .''''''''.  ..    ",
"                                        .''''''''.        ",
"                                        .''.''''.         ",
"                                         .''.'''.         ",
"                                         .''.'''.         ",
"                                       ...........        ",
"                                      .............       ",
"                                       ...........        "};
