/* XPM */
static char * billA_10_xpm[] = {
"58 41 7 1",
" 	c None",
".	c #5A395A",
"+	c #D0D081",
"@	c #DEDEBD",
"#	c #000000",
"$	c #FFFFFF",
"%	c #292929",
"                  .......                                 ",
"               . .+++++++....                             ",
"              .+.++++++++++++.                            ",
"            ..++++++++++++++++.                           ",
"           ..+++++++++++++++++.                           ",
"           .++++++++++++++++++.                           ",
"           .+++++++++++++++++...                          ",
"           .+++++++++++++++++++..                         ",
"           .++++++++++++++++++++.                         ",
"            .++++..+++++++++++++.                         ",
"             .....@.++++++++++++.                         ",
"              ######.++++++++++.                          ",
"              ###@$@..++++++++.                           ",
"                .$@$@.++++++++.                           ",
"                .@$@.++++++++.                            ",
"                 .@$@..++++++.                            ",
"                 .$@$@...++++.                            ",
"                  ...$............                        ",
"                    ...%%%%%%%%%%%.                       ",
"                 ...%%%%%%%%%%%%%%.                       ",
"              ...%%%%%%%%%%%%%%%%%.                       ",
"         .....%%%%%%%%%%%%%%%%%%%..                       ",
"         .$@.%%%%%%%%%%%%%%%%%%..                         ",
"         .@$.%%%%%%%%%%%%%%%%%%.                          ",
"          ....%%%%%%%%%%%%%%%%%.                          ",
"              ......%%%%%%%%%%%.                          ",
"                  .%%%%%%%%%%%%%.                         ",
"                  .%%%%%%%%%%%%%.                         ",
"                  .%%%%%%.....%%.                         ",
"                  .%%....%%%%%.%.                         ",
"                   ...%%%%%%%%%.                          ",
"                    .%%%%%%%%%%.                          ",
"                    .%%%%%.%%%%.                          ",
"                   .%%%%%..%%%%.                          ",
"                   .%%%%%..%%%%.                          ",
"                  .%%%%%.  .%%%%.                         ",
"                  .%%%%%.  .%%%%.                         ",
"                 .......    .....                         ",
"                .........  ......                         ",
"                 .......    ....                          ",
"                                                          "};
