/* XPM */
static char * billD_2_xpm[] = {
"24 38 10 1",
" 	c None",
".	c #D0D081",
"+	c #FF0000",
"@	c #BF3F5F",
"#	c #000000",
"$	c #5D3C5D",
"%	c #FF0707",
"&	c #0C00FF",
"*	c #FFFF9E",
"=	c #FFFFFF",
"  .  +    .  +@  .   . +",
"+  . + ..#  ++@+   +  + ",
" +  ++..#.  ++@+  +  +  ",
". +  ++     ++@+.   +   ",
".. + ++ $%  $+@  .. +   ",
"  .+  %%%$$ ++@%.%%++   ",
".. %& %%%  % %  %%&+   +",
"..  %+%%%+% % %  % %  + ",
".   %%%%% %++%%%%     +.",
"    %%   @@  %%%% +  +..",
" + @ %%% @%%  %   + +...",
" +*@+%%%%%%   %%%% +++..",
"# +@@%    % +%%%%% +++..",
"=#+++@+++%%% %%%+++++$ #",
"=# +@@+++@%%%%%++@++$##=",
"###++@+++++++++@++######",
" ## @@@++++++++@+@@@@++ ",
"++#+++++++++++@++@+++++ ",
"@@@@@+++@+@++@++@++++++ ",
"  +++++++++++++@++$$$$$$",
"+@++  +++++++++@+++++++ ",
"  @  @@@+++++++++++++   ",
"    ++++++++++++++ +    ",
"    ++@@+++++++++++++   ",
"   ++@+@+++++++++@@++++ ",
" ++++++@++++++++++@$   +",
" $$ ++@@+++++++++++$$ * ",
"    ++$@@+++++++++++$   ",
"++++++$@+++@++++@++++ $ ",
" ++++$+@@++@++@+@++*+ $$",
"+++@+ @++++@++@+@+@++ +$",
"++@++@++++++++@+@@+@+ @ ",
"++@ @+@+++++++ +@@+@++ @",
"+++ +@+  +$+++ +@+++@+ @",
" ++ +@+  +++++ ++  +@+ @",
"     +    ++   ++   +@  ",
" @   +    ++   +    ++  ",
"    +     +    +     +  "};
