/* XPM */
static char * billD_2_xpm[] = {
"24 38 7 1",
" 	c None",
".	c #ff0000",
"X	c #bf3f5f",
"o	c #5d3c5d",
"O	c #000000",
"+	c #ffffff",
"@	c #ffff9e",
"     .       .X        .",
".    .      ..X.   .  . ",
" .  ..      ..X.  .  .  ",
"  .  ..     ..X.    .   ",
"   . .. oo  o.X     .   ",
"  ..OOOO oo ..X    ..   ",
"   O+.++O   OOOO   .   .",
"o  O+.++O. O++++O     . ",
"o  O..+++OO..+++O     . ",
"   O++.++XX++.+++O.  .  ",
" . X++.+OXO+++.++O. .   ",
" .@X.+.+OXO++.+.+O ...  ",
"  .XXOOO.X.O.+++O. ...  ",
"  ...X...X.O++++.....o X",
"   .XX...X..OOO..X..o   ",
"   ..X.........X...o.   ",
"    XXX........X.XXXX.. ",
"..............X..X..... ",
"XXXXX...X.X..X..X...... ",
"  .............X..oooooo",
".X..  .........X....... ",
"  X  XXX.............   ",
"    .............. .    ",
"    ..XX.............   ",
"   ..X.X.........XX.... ",
" ......X..........Xo   .",
" oo ..XX...........oo @ ",
"    ..oXX...........o   ",
"......oX...X....X.... o ",
" ....o.XX..X..X.X..@. oo",
"...X. X....X..X.X.X.. .o",
"..X..X........X.XX.X. X ",
"..X X.X....... .XX.X.. X",
"... .X.  .o... .X...X. X",
" .. .X.  ..... ..  .X. X",
"     .    ..   ..   .X  ",
" X   .    ..   .    ..  ",
"    .     .    .     .  "};
