/* XPM */
static char * billA_2_xpm[] = {
"58 41 8 1",
" 	c None",
".	c #5A395A",
"+	c #D0D081",
"@	c #000000",
"#	c #FFFFFF",
"$	c #FFFFF7",
"%	c #DEDEBD",
"&	c #292929",
"                                                          ",
"                                                          ",
"                        ........                          ",
"                      ..++++++++...                       ",
"                     .+++++++++++++..                     ",
"                    .++++++++++++++++..                   ",
"                    .+++++++++++++++.++.                  ",
"                    ..++++++++++++++.+++.                 ",
"                   .++++++++++++++++++++.                 ",
"                  .++++++++++++++++++++++.                ",
"                  .++++++++++@@@@++++++++.                ",
"                  .++@@@@+++@####@+++++++.                ",
"                  .+@####@+@#####@+++++++.                ",
"                   .@####@+@######@@@@+.+.                ",
"                    @#####@@######@$%.+..                 ",
"                    @#####@@######@%$...                  ",
"                    @#####@$@#####@$%.                    ",
"                     @###@$%@####@$%.                     ",
"                      @@@$%$%@@@@$...                     ",
"                        .%.%$%$%$%.                       ",
"                        .$%.%$%$.$.                       ",
"                        ..$%$%$.....                      ",
"                      ..&&.$%$..&&&.$                     ",
"                      .&&.&....&&&&&.$                    ",
"                     .&.&.&.&&.&&&&&&.                    ",
"                     .&.&.&.&.&&&&&&&&.                   ",
"                    .&&.&&..&.&&.&&&&&.                   ",
"                    ..&.&&...&&&&.&&&&&.                  ",
"                   .$%..&&&..&&&&.&&&...                  ",
"                   .% %.&&&.&&&&&&.&.%$.                  ",
"                    .% .&&&.&&&&&&&.%$%$.                 ",
"                     .. .............%$.                  ",
"                         .&&&&&&&&.. ..                   ",
"                         .&&&&&&&&.                       ",
"                         .&&.&&&&.                        ",
"                          .&&.&&&.                        ",
"                          .&&.&&&.                        ",
"                        ..........                        ",
"                       ............                       ",
"                        ..........                        ",
"                                                          "};
