/* XPM */
static char * billD_1_xpm[] = {
"24 38 9 1",
" 	c None",
".	c #5D3C5D",
"+	c #D0D081",
"@	c #000000",
"#	c #FFFFFF",
"$	c #FF0000",
"%	c #DFDFBE",
"&	c #9F3F5F",
"*	c #292929",
"      .     .           ",
"     .... ...           ",
" ... .+++.++. ....      ",
" .+++.+++.++..++.....   ",
"...+++++++++++++..++.   ",
".++++++++++++++++++.    ",
".+++++++++++++++++.     ",
" .++++++++++++++++....  ",
" .++++++++@@@@+++++++.. ",
"..@@@@+++@####@+++++.   ",
".@#$##@+@$$###@++++..   ",
".@#$##@+@##$###@@@@.    ",
".@$$###@@###$##@#%.+.   ",
" @##$##@@##$#$#@%#.+.$$ ",
" @##$#@%#@$###@$$.$$$.$&",
"  @#$#@#%@####$$ $$..   ",
".  @@@#%#%@@@$$ && .%.  ",
" ..****... % $$&&.. . . ",
"%.$$$**.... .$&&*. % %. ",
" $&&$$$$ % .$&&**.% % . ",
"%.**&&&$$.$$$&****.% %. ",
"..****&$$$$$&&**$$$$$$  ",
"    .*$&$$$&$$$$$$$$$$$ ",
"  $$$$$$$$$$$$$***&&&&&$",
"&&&&&&$$$$$$$**$$$$    &",
"     &.$$$$$$&$&&$$$$$  ",
"  $$$$*&&$$$$$$**&&&$$$ ",
" $$$  &&$*&$$&$**. &&&$$",
"$$   $&*.$&$&$***.   &&$",
"    $&  $&$$&$$*..    & ",
"   $  $&$*$&$&$..*.     ",
" ..  .*&**$&.&****.  .. ",
".... .**..$&.&*****. ...",
".....******& &.*****....",
" ....*****.$ & .***.... ",
" .....**.. $    ....... ",
"  ......   $     .....  ",
"  ....           ...    "};
