/* XPM */
static char * billD_3_xpm[] = {
"24 38 5 1",
" 	c None",
".	c #ff0000",
"X	c #bf3f5f",
"o	c #5d3c5d",
"O	c #000000",
".    .                  ",
"           ...X      .. ",
"           ...X     ....",
"   .      ....X    .....",
" .. .. . o..o.     .....",
"...... ..o....   .......",
" .....  . ..O.  . ......",
"   ....   .... . ...... ",
". . ..    ...  . ....   ",
"..   ..    ..   ....  . ",
"...   .  . .   .... .   ",
" ...          ...  .    ",
"              ...    .  ",
"              .     .o  ",
"        .     .    .... ",
"       ..    .   .......",
" ..   X...   .   ...X...",
".....  ...      ........",
"        . X     .     . ",
"    ....                ",
".  .  ....              ",
" ..          . .....    ",
".    .  . .  .   ....   ",
"    . XX           ...  ",
"     X..       .    ....",
"   ....       .    o ...",
"  .....       .. .  o...",
"  . ...  .    ...     . ",
"  ....     X  ..X .   . ",
"  ...   .  X  X.X ..    ",
"  ...   .  X  X.X X.    ",
"   .    .  .  X.X  ..   ",
"         . .   .X  ...  ",
"       .  ..   .X  ...  ",
"       .   .  ...  .X.. ",
"      .    .  ...  ..X. ",
"      ..   .   .   .... ",
"       ... .   .        "};
