/* XPM */
static char * bsd_xpm[] = {
"28 24 6 1 XPMEXT",
"      c #e0ffff",
".     c #cd5c5c",
"X     c #888888",
"o     c #FFFFFF",
"O     c #000000",
"+     c #cccccc",
"                            ",
"           ..               ",
"           .X       .       ",
"            .....   .X      ",
"           ........ .X      ",
"           .o........X      ",
"           .Oo.o...XX       ",
"      O    ....Oo..         ",
"    O  O  ...X.....         ",
"     O O  .+...+...         ",
"   O  OOO  .+++...          ",
"    OO OO   .....           ",
"         ..  .XX.           ",
"         .OO ....           ",
"          OO.XX..           ",
"            .....           ",
"           .X....           ",
"           ..XXO.           ",
"           .......          ",
"            .........       ",
"           ..o...   ....    ",
"        +...++...       .   ",
"        ... .....     ..    ",
"             ..             ",
"XPMEXT copyright",
"Copyright © 1988, Marshall Kirk McKusick",
"All Rights Reserved.  Reproduced with permission.",
"",
"XPMENDEXT"};
