/* XPM */
static char * bucket_xpm[] = {
/* width height ncolors chars_per_pixel */
"24 24 10 1",
/* colors */
" 	c #FFFFFF",
".	c #1A1B1A",
"X	c #191718",
"o	c #ABABAC",
"O	c #595959",
"+	c #9A9A9A",
"@	c #A9D0E3",
"#	c #A4A3A4",
"$	c #83BAD8",
"%	c #355C76",
/* pixels */
"                        ",
"                        ",
"         .X....         ",
"     ..X.oOOOOO.X.X     ",
"   .X+o@o####OOOOOO..   ",
"   .+++@###oo#OOOOOO.   ",
"  .X+++@@$$@$@%%%OOO..  ",
"  ..+@$@$@@@@@$%%%%O..  ",
"  .O.$$$$$$$$@@%%%%.+.  ",
"  ..O.X.X.@@$@%.XX.#..  ",
"   .OO.OOX.....##o@#.   ",
"   .OO.+O.+++##o##@#.   ",
"   .OOOX.+++++o##@@#.   ",
"   XOOO+O.+++++##@@oX   ",
"   XOOO++OX++++o#@##.   ",
"    .OO+++O.X++##@#O.   ",
"    .OO+++++O.X.#@#..   ",
"    .OO++++++++O.....   ",
"    .OOO+++++++oOOO.    ",
"     .OO++++++###@.     ",
"      ..OOO+++o#..      ",
"        ........        ",
"                        ",
"                        "};
