/* XPM */
static char * centos_xpm[] = {
"28 24 45 1",
" 	c None",
".	c #939393",
"+	c #FFFFFF",
"@	c #FFFFCC",
"#	c #FFCCCC",
"$	c #FFCC66",
"%	c #FFCC99",
"&	c #CC9900",
"*	c #FF9900",
"=	c #CCFFCC",
"-	c #99CC66",
";	c #99CC33",
">	c #CCFF99",
",	c #993399",
"'	c #CC6699",
")	c #CC99CC",
"!	c #993366",
"~	c #99CC00",
"{	c #CCCC66",
"]	c #CC9999",
"^	c #990066",
"/	c #660066",
"(	c #996699",
"_	c #99CC99",
":	c #CCCC33",
"<	c #FFFF66",
"[	c #CCCC99",
"}	c #CCCCCC",
"|	c #FFFF99",
"1	c #CCFF66",
"2	c #FFCCFF",
"3	c #9999CC",
"4	c #336699",
"5	c #CCCCFF",
"6	c #666699",
"7	c #333366",
"8	c #999999",
"9	c #6699CC",
"0	c #333399",
"a	c #FFCC33",
"b	c #330066",
"c	c #003399",
"d	c #6666CC",
"e	c #003366",
"f	c #000066",
"...........++@++............",
"..........++#$$++...........",
".........++%$&*$++..........",
"....++++++@@%$$%#+++++++....",
"....+=-;>@>;>%#,,')!,,++....",
"....+@~;={~;-%],^^]'/(#+....",
"....+_:@<{:~>$%,^()'#^++....",
"....++[:_-{;-%],()()(#}+....",
"...++@;~{@>[>%%')'),^'+++...",
"..++)@~;~{[|=%})()^^/,}}++..",
".++),=1-1->==@#)2(''''34}++.",
".+(,^'')')')#++56363637643+.",
".+#!,))3)3))5++}}8#8#}349}+.",
".+++,}7070633@[%%$*a&a83}++.",
"..+++8b073335{|%$[$&*&++++..",
"...+++6b83666>{%%$%$&%+++...",
"....+}38363cd>@&$%%%@%++....",
"....+57683e76>{$&${%$$@+....",
"....+8bf36bf6{[**&%$*&++....",
"....+566658d3>[%$%%%$%++....",
"....+++++++>1;--++++++++....",
"..........++-;~=++..........",
"...........++[@++...........",
"............++++............"};
