/* XPM */
static char * centos_xpm[] = {
"28 24 364 2",
"  	c None",
". 	c #8E8E8E",
"+ 	c #888888",
"@ 	c #9A9994",
"# 	c #898989",
"$ 	c #878787",
"% 	c #AEA491",
"& 	c #DEC392",
"* 	c #AEA18B",
"= 	c #868686",
"- 	c #ADA391",
"; 	c #E6C17E",
"> 	c #F2BD5D",
", 	c #E5BE77",
"' 	c #AB9F89",
") 	c #858585",
"! 	c #8D8D8D",
"~ 	c #8B8B8B",
"{ 	c #9C9C99",
"] 	c #9EA393",
"^ 	c #9DA292",
"/ 	c #9DA192",
"( 	c #9B9E92",
"_ 	c #B1B1A5",
": 	c #D4C89A",
"< 	c #E6C37C",
"[ 	c #EEBC61",
"} 	c #E0B976",
"| 	c #D3B69D",
"1 	c #AEA5A6",
"2 	c #9C919A",
"3 	c #9E929B",
"4 	c #9E9A9E",
"5 	c #8A8A8A",
"6 	c #8C8C8C",
"7 	c #B3C193",
"8 	c #B9D870",
"9 	c #B9D970",
"0 	c #AFCD68",
"a 	c #BFD28F",
"b 	c #C2DC86",
"c 	c #B1D25E",
"d 	c #CECF86",
"e 	c #ECBB62",
"f 	c #CD9F98",
"g 	c #B76EA4",
"h 	c #C28CB5",
"i 	c #C190B6",
"j 	c #AF659D",
"k 	c #AF619C",
"l 	c #AA5A96",
"m 	c #A6829F",
"n 	c #7E7E7E",
"o 	c #B4C391",
"p 	c #BADC6C",
"q 	c #B7D86B",
"r 	c #BCD287",
"s 	c #C1DB84",
"t 	c #B1D757",
"u 	c #A9D14D",
"v 	c #C8CB7B",
"w 	c #EBB85B",
"x 	c #CC9C96",
"y 	c #B56AA4",
"z 	c #B66BA5",
"A 	c #BD87B0",
"B 	c #BF88B2",
"C 	c #AB5698",
"D 	c #A54B90",
"E 	c #9E7494",
"F 	c #757575",
"G 	c #B4C390",
"H 	c #AFD161",
"I 	c #B9D578",
"J 	c #BED783",
"K 	c #BDD87F",
"L 	c #ACD450",
"M 	c #A6CF47",
"N 	c #C7CA78",
"O 	c #EBB554",
"P 	c #CB9A93",
"Q 	c #B263A0",
"R 	c #AD619C",
"S 	c #B680A9",
"T 	c #B67EA9",
"U 	c #AD659D",
"V 	c #9F448A",
"W 	c #9D7293",
"X 	c #ADBB8D",
"Y 	c #B9D181",
"Z 	c #C8DB9A",
"` 	c #BDD780",
" .	c #BAD67A",
"..	c #B9D676",
"+.	c #A3CD42",
"@.	c #C7C976",
"#.	c #EAB450",
"$.	c #CB9891",
"%.	c #AA5B98",
"&.	c #B67FA9",
"*.	c #B077A3",
"=.	c #B277A4",
"-.	c #BF8CB3",
";.	c #AF6CA0",
">.	c #9B7292",
",.	c #BEC5AB",
"'.	c #C1DC84",
").	c #B1D758",
"!.	c #BDD87D",
"~.	c #B9D577",
"{.	c #B7D473",
"].	c #B2D06C",
"^.	c #C6C874",
"/.	c #EBB553",
"(.	c #C7978E",
"_.	c #B47CA7",
":.	c #B27AA5",
"<.	c #B278A5",
"[.	c #B573A6",
"}.	c #A03D89",
"|.	c #B0689F",
"1.	c #AE94A8",
"2.	c #747474",
"3.	c #A0949D",
"4.	c #C6CEA2",
"5.	c #AFD654",
"6.	c #B0D655",
"7.	c #AFD655",
"8.	c #BCD87A",
"9.	c #B6D471",
"0.	c #B4D26F",
"a.	c #D6D196",
"b.	c #E5B050",
"c.	c #D5B5A2",
"d.	c #B47EA8",
"e.	c #B37AA6",
"f.	c #B879A9",
"g.	c #A5488F",
"h.	c #9E3A87",
"i.	c #962E7E",
"j.	c #B28AAD",
"k.	c #8E8E98",
"l.	c #848484",
"m.	c #A1919D",
"n.	c #B37FA7",
"o.	c #B9AC98",
"p.	c #ADC768",
"q.	c #ADC667",
"r.	c #ADC668",
"s.	c #ACC566",
"t.	c #BCCA8E",
"u.	c #B5C97E",
"v.	c #BFC69A",
"w.	c #CCB68F",
"x.	c #BDA2A9",
"y.	c #B384AA",
"z.	c #B88FB1",
"A.	c #A56298",
"B.	c #A35E96",
"C.	c #9F5691",
"D.	c #994E8B",
"E.	c #9C7AA5",
"F.	c #7777A4",
"G.	c #8A8A98",
"H.	c #A1979F",
"I.	c #B57BA8",
"J.	c #B1629F",
"K.	c #BC7DAD",
"L.	c #BA7EA7",
"M.	c #B97CA6",
"N.	c #B87BA5",
"O.	c #B779A4",
"P.	c #B678A3",
"Q.	c #BB88AD",
"R.	c #A1989E",
"S.	c #767574",
"T.	c #99999F",
"U.	c #9693B7",
"V.	c #9590B7",
"W.	c #918CB4",
"X.	c #8883AF",
"Y.	c #7F79A9",
"Z.	c #7570A3",
"`.	c #6B69A0",
" +	c #403F87",
".+	c #666596",
"++	c #93939B",
"@+	c #A29AA0",
"#+	c #B178A4",
"$+	c #AA5998",
"%+	c #B178A5",
"&+	c #A773A2",
"*+	c #A672A1",
"=+	c #A570A0",
"-+	c #A5709F",
";+	c #A36E9D",
">+	c #B287AA",
",+	c #A29BA2",
"'+	c #828381",
")+	c #ABAAAD",
"!+	c #9D9AB2",
"~+	c #9993A6",
"{+	c #958FA4",
"]+	c #8E889F",
"^+	c #86809A",
"/+	c #7F7895",
"(+	c #6F6C99",
"_+	c #3A3980",
":+	c #636391",
"<+	c #7D7D84",
"[+	c #7B7B7B",
"}+	c #9F939B",
"|+	c #AD78A1",
"1+	c #9980AA",
"2+	c #716EA3",
"3+	c #7472A5",
"4+	c #7472A6",
"5+	c #6F6DA0",
"6+	c #908EB0",
"7+	c #8482A9",
"8+	c #A6A9B0",
"9+	c #C0CF9D",
"0+	c #D6CB9F",
"a+	c #EACA91",
"b+	c #E8CB97",
"c+	c #EDC173",
"d+	c #EEC170",
"e+	c #EDBD68",
"f+	c #E9B75E",
"g+	c #BAA38A",
"h+	c #707099",
"i+	c #71717B",
"j+	c #656565",
"k+	c #9F959D",
"l+	c #A49EB9",
"m+	c #6A69A0",
"n+	c #6E6EA4",
"o+	c #6A699E",
"p+	c #8787AC",
"q+	c #7E7EA5",
"r+	c #7E7DA5",
"s+	c #B4BCB0",
"t+	c #BAD876",
"u+	c #D5D4A3",
"v+	c #ECCD94",
"w+	c #EBCA8F",
"x+	c #ECCA8D",
"y+	c #F2BF64",
"z+	c #F2BC59",
"A+	c #E9B14A",
"B+	c #D2BB92",
"C+	c #7B7B82",
"D+	c #ABABB8",
"E+	c #8C8CB3",
"F+	c #616198",
"G+	c #8281A9",
"H+	c #7B7AA3",
"I+	c #7B7BA5",
"J+	c #7574A2",
"K+	c #91999B",
"L+	c #BBD978",
"M+	c #D5CB86",
"N+	c #ECC988",
"O+	c #EBC98A",
"P+	c #EAC683",
"Q+	c #EBC47F",
"R+	c #EAB24C",
"S+	c #E0B972",
"T+	c #BEAF95",
"U+	c #686868",
"V+	c #8E8EA7",
"W+	c #8181AC",
"X+	c #9797B6",
"Y+	c #7A7AA3",
"Z+	c #7A79A3",
"`+	c #7675A4",
" @	c #414086",
".@	c #8E9698",
"+@	c #B5D66B",
"@@	c #D4CA81",
"#@	c #F1BD5D",
"$@	c #ECC783",
"%@	c #EAC47E",
"&@	c #E8C078",
"*@	c #E4C58C",
"=@	c #E3B86C",
"-@	c #BFA472",
";@	c #8E8DA8",
">@	c #585795",
",@	c #6C6BA0",
"'@	c #7979A3",
")@	c #7574A4",
"!@	c #424188",
"~@	c #3A3981",
"{@	c #8C9495",
"]@	c #B2D462",
"^@	c #D3C97E",
"/@	c #F2BB57",
"(@	c #F1B954",
"_@	c #E8C079",
":@	c #EBC278",
"<@	c #EFBA5A",
"[@	c #ECAC38",
"}@	c #BFA36F",
"|@	c #8D8DA7",
"1@	c #525192",
"2@	c #504F90",
"3@	c #7575A4",
"4@	c #7170A2",
"5@	c #3B3A83",
"6@	c #34337E",
"7@	c #8A9393",
"8@	c #AED25B",
"9@	c #D2C87B",
"0@	c #F1B851",
"a@	c #EBB24B",
"b@	c #E1BA72",
"c@	c #EBC072",
"d@	c #F0AF39",
"e@	c #ECA931",
"f@	c #BEA36E",
"g@	c #9190A6",
"h@	c #5D5C8F",
"i@	c #59598E",
"j@	c #56558B",
"k@	c #8787A8",
"l@	c #74739F",
"m@	c #505184",
"n@	c #97A195",
"o@	c #ABD155",
"p@	c #CAC67A",
"q@	c #DDB25C",
"r@	c #DAB878",
"s@	c #D6B986",
"t@	c #DAA951",
"u@	c #D9A84E",
"v@	c #D7A54B",
"w@	c #B9A27B",
"x@	c #969697",
"y@	c #7E7E82",
"z@	c #79797D",
"A@	c #989A97",
"B@	c #B7C698",
"C@	c #B4D569",
"D@	c #A7D243",
"E@	c #ADD05C",
"F@	c #BAC78E",
"G@	c #929288",
"H@	c #807D76",
"I@	c #838079",
"J@	c #81807E",
"K@	c #838383",
"L@	c #9FA593",
"M@	c #AFCA6F",
"N@	c #9DC936",
"O@	c #A5C065",
"P@	c #808472",
"Q@	c #676767",
"R@	c #828282",
"S@	c #9EA492",
"T@	c #B0C187",
"U@	c #808672",
"V@	c #8B8C8A",
"W@	c #6E6E6E",
". . . . . . . . . . . . + @ # . . . . . . . . . . . . . ",
". . . . . . . . . . . $ % & * = . . . . . . . . . . . . ",
". . . . . . . . . . $ - ; > , ' ) ! ! ! ! . . . . . . . ",
". . . . ~ { ] ^ / ( _ : < [ } | 1 2 3 3 3 4 5 . . . . . ",
". . . . 6 7 8 9 0 a b c d e f g h i j k l m n 6 . . . . ",
". . . . 6 o p q r s t u v w x y z A B C D E F 6 . . . . ",
". . . . 6 G H I J K L M N O P Q R S T U V W F 6 . . . . ",
". . . . 6 X Y Z `  ...+.@.#.$.%.&.*.=.-.;.>.F 6 . . . . ",
". . . . + ,.'.).!.~.{.].^./.(._.:.<.[.}.|.1.2.6 . . . . ",
". . . $ 3.4.5.6.7.8.9.0.a.b.c.d.e.f.g.h.i.j.k.l.. . . . ",
". . $ m.n.o.p.q.r.s.t.u.v.w.x.y.z.A.B.C.D.E.F.G.) . . . ",
". . H.I.J.K.L.M.N.O.P.Q.R.S.T.U.V.W.X.Y.Z.`. +.+++= . . ",
". . @+#+$+%+&+*+=+-+;+>+,+'+)+!+~+{+]+^+/+(+_+:+<+[+. . ",
". . # }+|+1+2+3+4+5+6+7+8+9+0+a+b+c+d+e+f+g+h+i+j+$ . . ",
". . . + k+l+m+n+o+p+q+r+s+t+u+v+w+x+y+z+A+B+C+j+$ . . . ",
". . . . + D+E+F+G+H+I+J+K+L+M+N+O+P+Q+R+S+T+U+= . . . . ",
". . . . 6 V+W+X+Y+Z+`+ @.@+@@@#@$@%@&@*@=@-@2.6 . . . . ",
". . . . 6 ;@>@,@'@)@!@~@{@]@^@/@(@_@:@<@[@}@F 6 . . . . ",
". . . . 6 |@1@2@3@4@5@6@7@8@9@0@a@b@c@d@e@f@F 6 . . . . ",
". . . . 6 g@h@i@j@k@l@m@n@o@p@q@r@s@t@u@v@w@F 6 . . . . ",
". . . . ! x@y@z@z@z@A@B@C@D@E@F@G@H@I@I@I@J@F ! . . . . ",
". . . . . 6 $ = = = K@L@M@N@O@P@Q@R@= = = = ~ . . . . . ",
". . . . . . . . . . . + S@T@U@Q@$ . . . . . . . . . . . ",
". . . . . . . . . . . . + V@W@$ . . . . . . . . . . . . "};
