/* XPM */
static char * debian_xpm[] = {
"28 24 21 1",
" 	c None",
".	c #FFFFFF",
"+	c #D5054F",
"@	c #D70651",
"#	c #D70550",
"$	c #D60550",
"%	c #D7054F",
"&	c #D60651",
"*	c #D50450",
"=	c #D70954",
"-	c #D70751",
";	c #D60853",
">	c #D70551",
",	c #D70F57",
"'	c #D60551",
")	c #D60752",
"!	c #D70752",
"~	c #D80B53",
"{	c #D70B55",
"]	c #D60955",
"^	c #D70753",
"........+++++++++++.........",
"......++++@@@@@@@#$+........",
".....++%+@&+....+*@@+.......",
"....++$@@=+......+-@@+......",
"...++$@$+..........++$......",
"...++@$+.....+++...++;+.....",
"..++>,+....++++++...+++.....",
"..++'+....+++...+...+++.....",
".+++$.....++.....+..+++.....",
".+++#....++.........+++.....",
".++).....++.........++......",
".++).....++........+$+......",
".++!......++......++$.......",
".+++......+++....+++........",
".+++#......+++++~+{.........",
".+++]........++++...........",
"..+++$......................",
"..+++#'.....................",
"...+++@)....................",
"....+++#+...................",
".....+++$++.................",
"......++#>++++..............",
"........++^++++++...........",
"...........++++++++........."};
