/* XPM */
static char * debian_xpm[] = {
"28 24 157 2",
"  	c None",
". 	c #FFFFFF",
"+ 	c #FBE1E9",
"@ 	c #ED95B5",
"# 	c #E46290",
"$ 	c #E76E99",
"% 	c #EC8BAD",
"& 	c #EC8FB0",
"* 	c #F0AAC3",
"= 	c #FAE6ED",
"- 	c #FDF7F8",
"; 	c #FDF5F7",
"> 	c #ED93B3",
", 	c #DE3B75",
"' 	c #D60751",
") 	c #D70751",
"! 	c #D70B54",
"~ 	c #D70952",
"{ 	c #DF3773",
"] 	c #E5608F",
"^ 	c #EFA4BF",
"/ 	c #FCF6F7",
"( 	c #F7D3DF",
"_ 	c #E56592",
": 	c #DA2062",
"< 	c #E76C98",
"[ 	c #ED96B5",
"} 	c #F0A6C0",
"| 	c #EE9BB9",
"1 	c #E8749D",
"2 	c #DF3A75",
"3 	c #D70E56",
"4 	c #E66A96",
"5 	c #F9E0E9",
"6 	c #F9DCE6",
"7 	c #E25386",
"8 	c #D91B5F",
"9 	c #E978A0",
"0 	c #F5C2D4",
"a 	c #FAE2EA",
"b 	c #E87BA2",
"c 	c #D60650",
"d 	c #E56794",
"e 	c #FCF3F5",
"f 	c #E97AA1",
"g 	c #E0437B",
"h 	c #EA7FA5",
"i 	c #ED94B4",
"j 	c #F2B1C8",
"k 	c #DB2566",
"l 	c #E45B8C",
"m 	c #F7D1DE",
"n 	c #FBEBF0",
"o 	c #E24E83",
"p 	c #FCF1F4",
"q 	c #FCF0F4",
"r 	c #E3598A",
"s 	c #DE3873",
"t 	c #F6CEDC",
"u 	c #F8D8E3",
"v 	c #F1AEC6",
"w 	c #F2B4CA",
"x 	c #EE9DBA",
"y 	c #DA1A5E",
"z 	c #ED99B7",
"A 	c #FCF7F8",
"B 	c #FDFDFD",
"C 	c #F3BDD0",
"D 	c #D9185D",
"E 	c #EA84A8",
"F 	c #F3B9CE",
"G 	c #EF9BB9",
"H 	c #F3BACF",
"I 	c #F9E1E9",
"J 	c #F7D5E1",
"K 	c #F7D4E0",
"L 	c #DB2364",
"M 	c #EC8EB0",
"N 	c #FDFBFB",
"O 	c #ED91B1",
"P 	c #DA2364",
"Q 	c #F6CDDC",
"R 	c #FAE7ED",
"S 	c #EFA1BD",
"T 	c #FEFEFE",
"U 	c #DC2C6B",
"V 	c #E879A1",
"W 	c #E97DA4",
"X 	c #DF4179",
"Y 	c #F2B0C7",
"Z 	c #FDF6F9",
"` 	c #FBE8EE",
" .	c #DD2D6C",
"..	c #E979A1",
"+.	c #FFFEFE",
"@.	c #FEFAFB",
"#.	c #EE99B7",
"$.	c #F5C7D7",
"%.	c #FAE4EB",
"&.	c #DD3672",
"*.	c #E97CA3",
"=.	c #E56290",
"-.	c #EE98B7",
";.	c #EF9CB9",
">.	c #FBF1F4",
",.	c #FDF6F7",
"'.	c #EFA3BE",
").	c #E24D82",
"!.	c #F9E2EA",
"~.	c #EA81A6",
"{.	c #E45C8C",
"].	c #FFFDFD",
"^.	c #F4BFD2",
"/.	c #E8769F",
"(.	c #FAEAEF",
"_.	c #F0A5C0",
":.	c #FEFCFC",
"<.	c #EC92B2",
"[.	c #DF3C76",
"}.	c #FBECF1",
"|.	c #F9E0E8",
"1.	c #E8759E",
"2.	c #EB89AB",
"3.	c #FDF0F4",
"4.	c #F4C2D4",
"5.	c #E66B97",
"6.	c #F3B5CB",
"7.	c #DB2969",
"8.	c #F7D7E2",
"9.	c #F8DCE6",
"0.	c #ED92B3",
"a.	c #ED97B6",
"b.	c #E4618F",
"c.	c #EFA0BC",
"d.	c #F9DFE8",
"e.	c #E7729C",
"f.	c #F8D9E4",
"g.	c #F1B0C7",
"h.	c #ED98B6",
"i.	c #EE9FBB",
"j.	c #E76F9A",
"k.	c #D60A53",
"l.	c #F4BED1",
"m.	c #DA1D60",
"n.	c #E7709B",
"o.	c #FFFCFD",
"p.	c #E97AA2",
"q.	c #F7CDDC",
"r.	c #E35386",
"s.	c #E0447B",
"t.	c #FAE9EF",
"u.	c #F5C6D7",
"v.	c #E45A8B",
"w.	c #E66A97",
"x.	c #F9E4EB",
"y.	c #EB8AAC",
"z.	c #F0A8C2",
". . . . . . . . . . + @ # $ % & * = - . . . . . . . . . ",
". . . . . . . . ; > , ' ) ' ! ~ ! { ] ^ / . . . . . . . ",
". . . . . . . ( _ ' ) : < [ } | 1 2 ) 3 4 5 . . . . . . ",
". . . . . . 6 7 ) 8 9 0 . . . . . a b c ) d e . . . . . ",
". . . . . . f ) g } . . . . . . . . . h ) ) i . . . . . ",
". . . . ; j k l m . . . . . . . . . . n o 3 9 p . . . . ",
". . . . q r s t . . . . . u v w m . . . x y z A . . . . ",
". . . B C D E . . . . . F G H I J q . . K L M N . . . . ",
". . . . O P Q . . . . R S R . . . T . . R U V . . . . . ",
". . . . W X e . . . . j Y . . . . . Z . `  ...+.. . . . ",
". . . . W 7 @.. . . . #.$.. . . . . / . %.&.v . . . . . ",
". . . . *.=.B . . . . -.;.. . . . >.,.. '.).!.. . . . . ",
". . . . ~.{.].. . . . ^./.; . (.(.N . a {._.:.. . . . . ",
". . . . <.[.}.. . . . |.1.2.3.. . . 4.5.h N . . . . . . ",
". . . . 6.7.8.. . . . e 9.4 $ 0.a.V b.c.. . . . . . . . ",
". . . . d.U e.n . . . . . f.g.h.i.4.n . . . . . . . . . ",
". . . . +.j.k.^ . . . . . . . ; - . . . . . . . . . . . ",
". . . . . l.m.n.o.. . . . . . . . . . . . . . . . . . . ",
". . . . . . p.U q.. . . . . . . . . . . . . . . . . . . ",
". . . . . . I r.=.3.. . . . . . . . . . . . . . . . . . ",
". . . . . . . 4.s.p.t.. . . . . . . . . . . . . . . . . ",
". . . . . . . . u.v.w.x.. . . . . . . . . . . . . . . . ",
". . . . . . . . . n y.1.z.@.. . . . . . . . . . . . . . ",
". . . . . . . . . . . d.j u.I @.. . . . . . . . . . . . "};
