/* XPM */
static char * gentoo_xpm[] = {
"28 24 15 1",
" 	c None",
".	c #939393",
"+	c #9999CC",
"@	c #CCCCCC",
"#	c #FFFFFF",
"$	c #CCCCFF",
"%	c #9999FF",
"&	c #6666FF",
"*	c #666699",
"=	c #6666CC",
"-	c #666666",
";	c #9966CC",
">	c #333366",
",	c #663366",
"'	c #999999",
".........+@+@+@.............",
"........+@@#@$+%+...........",
".......+#######$%%..........",
"......+#######@#$$+@........",
".....+###########$$%@.......",
"....+#########+$$$+$%@......",
"....$#######$&.*+$$+$%@.....",
"....%######$=..=-$+$+%$@....",
"....%$######@-**$$$+$%$$@...",
"....;%%#######@#$$+$+%=$+@..",
".....;%+$######$$$$+$%%$@+..",
".......+=$####$$@$+$+%%#++..",
"........$######$$$$+%$#@+...",
".......$####$#$$$$+%$#@+....",
"......$######@$$$+%$#@+.....",
".....$######$$@$%+$#@*......",
"....$######$#$$+$##+*.......",
"...@######$#@$+###**........",
"...@#####$#$$$##$>+.........",
"...@##$#$$@###@*>...........",
"...*###$####@*,-............",
"....*####@'*>*..............",
".....>*>>>**................",
"............................"};
