/* XPM */
static char * gentoo_xpm[] = {
"28 24 295 2",
"  	c None",
". 	c #B7ADBC",
"+ 	c #B3A9BE",
"@ 	c #B1A8C3",
"# 	c #B2AAC7",
"$ 	c #B1AAC9",
"% 	c #AEA5C7",
"& 	c #B0A5C3",
"* 	c #B6ABBE",
"= 	c #B1A7C1",
"- 	c #BBB3CF",
"; 	c #D1CCE2",
"> 	c #E2E0EE",
", 	c #EDEBF5",
"' 	c #EBE9F5",
") 	c #D4D1EE",
"! 	c #B9B4E8",
"~ 	c #A79DDC",
"{ 	c #ABA0CD",
"] 	c #B6ACBB",
"^ 	c #AAA0C8",
"/ 	c #C8C4E2",
"( 	c #EDECF6",
"_ 	c #FFFFFF",
": 	c #FDFDFE",
"< 	c #F4F4FC",
"[ 	c #E8E8FA",
"} 	c #CAC7F7",
"| 	c #ADA5F3",
"1 	c #A59BDD",
"2 	c #B0A5C6",
"3 	c #AAA0CE",
"4 	c #CEC9EC",
"5 	c #FEFEFE",
"6 	c #F7F7FD",
"7 	c #EBEBFB",
"8 	c #DFDEF8",
"9 	c #D1D0F6",
"0 	c #B7B2F5",
"a 	c #A8A1E8",
"b 	c #ADA4D0",
"c 	c #AA9FCE",
"d 	c #CBC4F1",
"e 	c #F3F3FC",
"f 	c #E1E1F9",
"g 	c #E1E0F9",
"h 	c #D4D4F6",
"i 	c #C8C7F4",
"j 	c #B8B5F3",
"k 	c #ACA6F0",
"l 	c #AFA6D5",
"m 	c #B4AABF",
"n 	c #B7AFE7",
"o 	c #F4F3FE",
"p 	c #F9F8FE",
"q 	c #DEDCF9",
"r 	c #B9B5F5",
"s 	c #B9B4EC",
"t 	c #D1D0F2",
"u 	c #C9C8F4",
"v 	c #BDBCF3",
"w 	c #B6B3F3",
"x 	c #B0ABF2",
"y 	c #B3ADD7",
"z 	c #B4AABE",
"A 	c #ABA1CD",
"B 	c #C6C1F8",
"C 	c #EFEFFC",
"D 	c #C6C0F6",
"E 	c #9A8FF0",
"F 	c #988DEE",
"G 	c #8179C0",
"H 	c #9B98BF",
"I 	c #BEBCF3",
"J 	c #B1ADF4",
"K 	c #B8B4F3",
"L 	c #BCB6DA",
"M 	c #B5ABBD",
"N 	c #A99ED3",
"O 	c #C1BCF7",
"P 	c #F7F6FD",
"Q 	c #D3D0F9",
"R 	c #9C93EA",
"S 	c #998DDE",
"T 	c #978BE4",
"U 	c #7169AB",
"V 	c #8884AC",
"W 	c #C7C6F2",
"X 	c #AFAAF4",
"Y 	c #AEA8F5",
"Z 	c #C3BFF5",
"` 	c #C5BED8",
" .	c #A89ECE",
"..	c #9F97EE",
"+.	c #CCCAF6",
"@.	c #ECECFB",
"#.	c #F2F1FA",
"$.	c #BCB8DA",
"%.	c #8E88A7",
"&.	c #7C75A0",
"*.	c #8883AD",
"=.	c #B4B2D7",
"-.	c #BDBBF3",
";.	c #B5B2F3",
">.	c #AEAAF4",
",.	c #A7A1F5",
"'.	c #B2ACF7",
").	c #D5D2F4",
"!.	c #C1BACF",
"~.	c #B3A9C0",
"{.	c #9D92DB",
"].	c #A29BEA",
"^.	c #BDBAF1",
"/.	c #E0E0F9",
"(.	c #E3E2EC",
"_.	c #CECDE2",
":.	c #D8D7F1",
"<.	c #D3D2F6",
"[.	c #C6C5F4",
"}.	c #BCBAF3",
"|.	c #B4B1F3",
"1.	c #AEA9F4",
"2.	c #A7A0F5",
"3.	c #A097F6",
"4.	c #D1CDFB",
"5.	c #D8D3E5",
"6.	c #B4ABBE",
"7.	c #AFA5C5",
"8.	c #A196D4",
"9.	c #9D93E2",
"0.	c #B3AEEA",
"a.	c #D0CEF3",
"b.	c #EDEDFB",
"c.	c #FAFAFE",
"d.	c #F5F5FC",
"e.	c #E9E8FA",
"f.	c #DCDCF8",
"g.	c #D0D0F6",
"h.	c #C4C3F3",
"i.	c #BAB9F3",
"j.	c #B3B0F3",
"k.	c #ADA7F4",
"l.	c #A69FF5",
"m.	c #9F96F6",
"n.	c #D2CDFB",
"o.	c #D8D5E9",
"p.	c #B2A9BF",
"q.	c #B6ABBD",
"r.	c #9F96D2",
"s.	c #A49DDD",
"t.	c #DCDAF3",
"u.	c #FBFBFE",
"v.	c #F1F1FC",
"w.	c #E5E5F9",
"x.	c #D9D9F7",
"y.	c #CDCDF5",
"z.	c #C2C0F3",
"A.	c #B9B7F3",
"B.	c #B2AEF3",
"C.	c #ABA6F4",
"D.	c #A49DF5",
"E.	c #C3BDF9",
"F.	c #EFEDFB",
"G.	c #BFB9D9",
"H.	c #B2A8BE",
"I.	c #BBB3C7",
"J.	c #DAD6E9",
"K.	c #D5D5F7",
"L.	c #CAC9F4",
"M.	c #BFBDF3",
"N.	c #B7B4F3",
"O.	c #B0ACF4",
"P.	c #AAA4F4",
"Q.	c #F2F1FD",
"R.	c #CECBE2",
"S.	c #A39DC3",
"T.	c #B4ABBC",
"U.	c #C0B8C8",
"V.	c #E1DEE7",
"W.	c #F2F2FC",
"X.	c #E7E7FA",
"Y.	c #C5C5F4",
"Z.	c #C9C6F8",
"`.	c #F3F2FD",
" +	c #D5D2E4",
".+	c #A09AC1",
"++	c #ACA3BC",
"@+	c #C7C0CC",
"#+	c #E8E5EB",
"$+	c #F6F6FC",
"%+	c #ECEBFB",
"&+	c #D7D6F7",
"*+	c #CCCBF5",
"=+	c #C1C0F3",
"-+	c #B3AFF3",
";+	c #D0CEF8",
">+	c #F4F4FD",
",+	c #CECCDF",
"'+	c #9F99BE",
")+	c #A8A0BA",
"!+	c #C3BBC9",
"~+	c #EBE8EC",
"{+	c #EFEEFB",
"]+	c #DBDBF8",
"^+	c #BEBBF4",
"/+	c #DBD9F9",
"(+	c #F6F6FA",
"_+	c #C3C0D7",
":+	c #918AB4",
"<+	c #A69EB8",
"[+	c #B8AFBF",
"}+	c #E1DEE5",
"|+	c #FCFCFE",
"1+	c #EFEFFB",
"2+	c #DEDDF8",
"3+	c #CBCAF5",
"4+	c #CDCBF6",
"5+	c #E7E6FB",
"6+	c #E7E6EE",
"7+	c #B2AECA",
"8+	c #8B84AC",
"9+	c #A39BB5",
"0+	c #C8C2D1",
"a+	c #FCFCFD",
"b+	c #FAFAFD",
"c+	c #EEEEFB",
"d+	c #D6D6F7",
"e+	c #DCDBF8",
"f+	c #CFCDDD",
"g+	c #9A95B7",
"h+	c #8D86AA",
"i+	c #A79EB4",
"j+	c #CBC7D8",
"k+	c #FCFBFE",
"l+	c #F8F8FD",
"m+	c #F1F0FC",
"n+	c #DEDEF8",
"o+	c #D0CFF6",
"p+	c #DADAF8",
"q+	c #E3E2EB",
"r+	c #B0ADC6",
"s+	c #7D77A2",
"t+	c #918AAA",
"u+	c #ACA2B7",
"v+	c #BCB7CE",
"w+	c #F9F9FD",
"x+	c #EAEAFA",
"y+	c #E6E6FA",
"z+	c #E2E1F9",
"A+	c #D8D8F7",
"B+	c #E9E9F0",
"C+	c #BBB8CD",
"D+	c #8984A9",
"E+	c #7D779F",
"F+	c #9990AC",
"G+	c #B4ABBA",
"H+	c #9F99B6",
"I+	c #DFDDE8",
"J+	c #E6E5FA",
"K+	c #F0F0FA",
"L+	c #E1E0EA",
"M+	c #B7B5CA",
"N+	c #8A85A8",
"O+	c #6F6993",
"P+	c #8981A2",
"Q+	c #A69DB2",
"R+	c #9C94AE",
"S+	c #9995B5",
"T+	c #CDCBDA",
"U+	c #E5E4ED",
"V+	c #E4E3EB",
"W+	c #D6D5E1",
"X+	c #BDBACD",
"Y+	c #9D99B5",
"Z+	c #7A749B",
"`+	c #6A648E",
" @	c #7E789B",
".@	c #9B92AB",
"+@	c #B3AABA",
"@@	c #928AA6",
"#@	c #746F96",
"$@	c #767198",
"%@	c #6D6790",
"&@	c #645E8A",
"*@	c #6B648D",
"=@	c #7F7799",
"-@	c #988FA9",
";@	c #B1A7B8",
">@	c #A298AF",
",@	c #8D85A2",
"'@	c #847B9C",
")@	c #867F9D",
"!@	c #938BA5",
"~@	c #A59CB0",
"{@	c #B3AAB9",
". . . . . . . . . + @ # $ % & * . . . . . . . . . . . . ",
". . . . . . . = - ; > , ' ) ! ~ { ] . . . . . . . . . . ",
". . . . . . ^ / ( _ _ _ : < [ } | 1 2 . . . . . . . . . ",
". . . . . 3 4 : _ _ _ _ 5 6 7 8 9 0 a b . . . . . . . . ",
". . . . c d _ _ _ _ _ _ : e f g h i j k l . . . . . . . ",
". . . m n o _ _ _ _ _ _ p q r s t u v w x y z . . . . . ",
". . . A B _ _ _ _ _ : C D E F G H u I w J K L M . . . . ",
". . . N O P _ _ _ _ : Q R S T U V W v w X Y Z ` . . . . ",
". . .  ...+.@.5 _ _ _ #.$.%.&.*.=.i -.;.>.,.'.).!.. . . ",
". . . ~.{.].^./.e 5 _ _ 5 (._.:.<.[.}.|.1.2.3.4.5.6.. . ",
". . . . 7.8.9.0.a.b.c._ : d.e.f.g.h.i.j.k.l.m.n.o.p.. . ",
". . . . . q.^ r.s.t.c._ u.v.w.x.y.z.A.B.C.D.E.F.G.H.. . ",
". . . . . . . I.J.: _ 5 6 @.f K.L.M.N.O.P.B Q.R.S.T.. . ",
". . . . . . U.V._ _ _ u.W.X.f.9 Y.}.;.>.Z.`. +.+++. . . ",
". . . . . @+#+_ _ _ : $+%+f &+*+=+A.-+;+>+,+'+)+. . . . ",
". . . . !+~+_ _ _ : 6 {+w.]+9 [.v ^+/+(+_+:+<+. . . . . ",
". . . [+}+_ _ 5 |+6 1+X.2+h 3+=+4+5+6+7+8+9+. . . . . . ",
". . . 0+a+5 : b+d.c+X.8 d+y.u e+e f+g+h+i+. . . . . . . ",
". . . j+k+l+d.m+7 w.n+&+o+p+@.q+r+s+t+u+. . . . . . . . ",
". . . v+w+b.x+y+z+e+A+8 7 B+C+D+E+F+G+. . . . . . . . . ",
". . . H+I+e x+J+y+7 K+L+M+N+O+P+Q+. . . . . . . . . . . ",
". . . R+S+T+U+V+W+X+Y+Z+`+ @.@+@. . . . . . . . . . . . ",
". . . . @@#@$@#@%@&@*@=@-@;@. . . . . . . . . . . . . . ",
". . . . . >@,@'@)@!@~@{@. . . . . . . . . . . . . . . . "};
