/* XPM */
static char * icon_xpm[] = {
"64 64 19 1",
" 	c None",
".	c #68B0E8",
"+	c #A8C8E0",
"@	c #40B0E8",
"#	c #0070B0",
"$	c #F0F8F8",
"%	c #F8F8F8",
"&	c #F0F0D8",
"*	c #604060",
"=	c #F8F890",
"-	c #D8B858",
";	c #88A070",
">	c #D0D081",
",	c #000000",
"'	c #303860",
")	c #FFFFFF",
"!	c #004888",
"~	c #5D3C5D",
"{	c #503050",
"                                                                ",
"                                                                ",
"                                                                ",
"                                                                ",
"                                                                ",
"                                                                ",
"                                                                ",
"                                                                ",
"                                 .+..                           ",
"                   .@#####..+###########@.                      ",
"            @###########.$+$$$$$...@@@#@####                    ",
"           #@@#@@.$+@@@.$+$$$$$+$#@.@@.#@@@###                  ",
"          ##@@@@.$+@@@.$+$%&++++*.#@@@#@@@@@.++#                ",
"          ##@@#@$+@@@.$+$$&&&=&--**.+@@@@@@@+$$$##              ",
"         .#+@##$.#@@.$+$$&&&=&----**#*@@@@@@$$$$+##             ",
"         .#.@.$.####$+$%%&&=&-------#-*@*@@.$$%$.@#             ",
"         ##@.$.###@$.$$%&&=&--------#;-*-*@+$$++#@#             ",
"         #@.$+####$+$$%+&=&---------#;*--*@%+$$.@@@#            ",
"         #.$+@@#@$.$$%=&=&----------#;----;%$$$@@@@@#           ",
"         #..@@@.$.$$$+&=&-----------#;----&+$$+@@@@@#           ",
"         ###@@.$+$$$+&=&------->----#;----%;$$@@@@@@#           ",
"         #@##.$$$$$.+=&------>------#;---=%%$$@@@@@@#           ",
"         #@@#$$$$$.++&---------->---#;---&=&$.@@@@@@#           ",
"         #@.$+$$$+$.+--------->-----#;---%=$+@@@@@@@#           ",
"         #.$++$$+$++#*,,,,,,-,,,,,,,'',,,+%+@@@@@@@@#           ",
"         #$+$$$+$+$###,))))),,))))))'',*$;&.#@@@@@@@#           ",
"         #++$$.$+$@@**,))))),,))))))'.%*$.$@!#@@@@@@#           ",
"         ++$$+++$@@@**,,,,,,,%,,,,,,'**++%+*@!#@@@@@#           ",
"         +$$+$++@@@@*%~)))))%&&)&)&).#*%*%%*#@!#@@@@#           ",
"         .$+++$#@@@@*&%&,,,%&%&)&)&%'#*%%%**!@@!#@@@#           ",
"         @.++$@##@@@****{{*&*&%&%&%*+#$&%&*!!!@@!#@@#           ",
"         @+.$#@@#@@@@@*{{{*%&*&%&%*{+#$%%%*!!!!@@!#@#           ",
"         #++###@##@@@@@*{{{*%&%&%*{{+#+++**!!!!!@@!@@           ",
"         .$####@@##@@@@*{{{{*%&%**{{+#&%;*@!!!!!!#@+.           ",
"         #######@##@@@@#*{{*{***{{{%$.&%*@@@!!!!!!#$@           ",
"         #######@@#@@@@##*{*{*{{*{%%%.%*@@@@@@!!!!..#           ",
"         #######@@##@@@@#*{*{*{*{%%%&+&.#@@@@@@!!!$!.           ",
"         #@######@@#@@@@@*{{**{{&%%&%$$!!#@@@@@@!#+#+           ",
"         ##@######@##@@@@*{{**{&%%&%%%;!!!#@@@@@@+#..           ",
"         #@@######@@#@@@@*{{{*%%%&%%&@'!!!!#@@@@.$!+.           ",
"         #@@@######@##@@@*{{%%%%&%%&&!'!!!!!#@@@+++             ",
"         ##@@#######@##@@*{%&%%&%%%&{!{!!!!!!#@@$+  .           ",
"         ##@@@######@##@@.&+$$++%%;**!!#!!!!!!!+++  !           ",
"         ##@@@@######@#@.$+$%&%%%{{{*!'@!!!!!!!$.   !           ",
"         ##@@@@######@#@&+$$&%%${{{**!'{@!!!!!!+#  +!@          ",
"         ##@@@@@######@&+$$&%%%{{{*{*!'{@@#!!!+#..+@#+          ",
"         .#@@@@@#####.$+$$+&&&{{{*{***{{@@@#!!$!$+@.#           ",
"         +#@@@@@@####$$$$%%&%*{******'!@@##!!..!++@#@           ",
"          ++@.@@@###++$$%%%%*********#!!#####$@+++@!+           ",
"          @#@@@####+.$$$$$.#***#****##@#!#@@.+@$+#!#@@@@        ",
"           @!#####$+$$$$$+@@@@@#!######@#!##+#!.#@@#@@@@+       ",
"        @##@#!!!!++$$$$++######!!#@@#######!.##@@@@@#@@.+       ",
"       @@@@@@####!##!!!!!!!!!!####!!!!!!####@@@@@@@@#@.+        ",
"         .#@#@@@@@@@@@@@@#####@@#######@@#@@@@@@@@@@#@.         ",
"          @##@@@@@@@@@@@@@@@@@@@##@@@@@@@#@@@@@@@@.             ",
"                  .@@@..@..@@@@@@##@@@@@@@                      ",
"                                ..#@@.                          ",
"                                                                ",
"                                                                ",
"                                                                ",
"                                                                ",
"                                                                ",
"                                                                ",
"                                                                "};
