/* XPM */
static char * wingdows_xpm[] = {
"28 24 60 1",
" 	c None",
".	c #000000",
"+	c #1E1E1E",
"@	c #262626",
"#	c #181818",
"$	c #363636",
"%	c #303030",
"&	c #3E3E3E",
"*	c #656565",
"=	c #7D7D7D",
"-	c #616161",
";	c #878787",
">	c #818181",
",	c #3F3F3F",
"'	c #7E7E7E",
")	c #585858",
"!	c #494949",
"~	c #313131",
"{	c #717171",
"]	c #2C2C2C",
"^	c #7C7C7C",
"/	c #272727",
"(	c #161616",
"_	c #7F7F7F",
":	c #0C0C0C",
"<	c #838383",
"[	c #808080",
"}	c #9C9C9C",
"|	c #595959",
"1	c #3A3A3A",
"2	c #AAAAAA",
"3	c #969696",
"4	c #4E4E4E",
"5	c #A6A6A6",
"6	c #939393",
"7	c #8C8C8C",
"8	c #8F8F8F",
"9	c #888888",
"0	c #3C3C3C",
"a	c #6B6B6B",
"b	c #5F5F5F",
"c	c #6A6A6A",
"d	c #060606",
"e	c #171717",
"f	c #515151",
"g	c #676767",
"h	c #414141",
"i	c #191919",
"j	c #1B1B1B",
"k	c #141414",
"l	c #898989",
"m	c #373737",
"n	c #1F1F1F",
"o	c #A1A1A1",
"p	c #8B8B8B",
"q	c #393939",
"r	c #949494",
"s	c #2B2B2B",
"t	c #434343",
"u	c #919191",
"............................",
"............................",
".+@#$@$$#%@$#&$.............",
"............................",
".@#+&#+%*=-;>,;')!'~-{].....",
"........^/(_:<_:<_.[_:<.....",
".@+&#$#@}|123456*7@[890.....",
"........'a!_.<_.<bc-_.<.....",
"..................d.........",
".@+]+@#.....................",
"............................",
".@&#e.......................",
"............................",
".&#&#e......................",
"............................",
"............................",
"........fgh-{]-{]~{~-{].....",
".ijkijkilm]7nopqr8s[_:<.....",
"........=t@890890[.[890.....",
".#&@@@@@ua!_.<_.<bc-_.<.....",
"..................d.........",
"............................",
"............................",
"............................"};
