/* XPM */
static char * initfail_xpm[] = {
"28 24 32 1",
" 	c None",
".	c #000000",
"+	c #363636",
"@	c #656565",
"#	c #7D7D7D",
"$	c #616161",
"%	c #878787",
"&	c #818181",
"*	c #7E7E7E",
"=	c #717171",
"-	c #7C7C7C",
";	c #272727",
">	c #161616",
",	c #7F7F7F",
"'	c #0C0C0C",
")	c #838383",
"!	c #808080",
"~	c #9C9C9C",
"{	c #595959",
"]	c #3A3A3A",
"^	c #AAAAAA",
"/	c #969696",
"(	c #A6A6A6",
"_	c #939393",
":	c #8C8C8C",
"<	c #8F8F8F",
"[	c #888888",
"}	c #6B6B6B",
"|	c #494949",
"1	c #5F5F5F",
"2	c #6A6A6A",
"3	c #060606",
"............................",
"............................",
".++.++++.+++.++.............",
"............................",
".+.++..+@#$%&.%*..*.$=......",
"........-;>,'),'),.!,').....",
".+.+.+.+~{]^/.(_@:.!<[......",
"........*}|,.),.)12$,.).....",
"..................3.........",
".+.+.+......................",
"............................",
".++.+.......................",
"............................",
".+.++.+.....................",
"............................",
"............................",
"........@#$%&.%*..*.$=......",
".++++.+.-;>,'),'),.!,').....",
"........~{]^/.(_@:.!<[......",
".++++++.*}|,.),.)12$,.).....",
"..................3.........",
"............................",
"............................",
"............................"};
