/* XPM */
static char * maccpu_xpm[] = {
"55 45 10 1",
" 	c None",
".	c #888888",
"X	c #bbbbbb",
"o	c #cccccc",
"O	c #000000",
"+	c #eeeeee",
"@	c #999999",
"#	c #666666",
"$	c #669933",
"%	c #cc0033",
"   ..............................                      ",
"  .XooooooooooooooooooooooooooooX.                     ",
" .XooooooooooooooooooooooooooooooX.                    ",
" .oX............................Xo.                    ",
" .o.OOOOOOOOOOOOOOOOOOOOOOOOOOOO.o.                    ",
" .o.OOOOOOOOOOOOOOOOOOOOOOOOOOOO.o.                    ",
" .o.OOOOOOOOOOOOOOOOOOOOOOOOOOOO.o.                    ",
" .o.OOOOOOOOOOOOOOOOOOOOOOOOOOOO.o.  ................  ",
" .o.OOOOOOOOOOOOOOOOOOOOOOOOOOOO.o.  .oo+ +oooXXXo.X.  ",
" .o.OOOOOOOOOOOOOOOOOOOOOOOOOOOO.o.  .o+++oooX@Xoo.X.  ",
" .o.OOOOOOOOOOOOOOOOOOOOOOOOOOOO.o.  .oo+ +oooXXXo.X.  ",
" .o.OOOOOOOOOOOOOOOOOOOOOOOOOOOO.o.  ..............X.  ",
" .o.OOOOOOOOOOOOOOOOOOOOOOOOOOOO.o.  .oo+ +oooXXXo.X.  ",
" .o.OOOOOOOOOOOOOOOOOOOOOOOOOOOO.o.  .o++.#####+oo.X.  ",
" .o.OOOOOOOOOOOOOOOOOOOOOOOOOOOO.o.  .oo+ +oooXXXo.X.  ",
" .o.OOOOOOOOOOOOOOOOOOOOOOOOOOOO.o.  ..............X.  ",
" .o.OOOOOOOOOOOOOOOOOOOOOOOOOOOO.o.  .oo+ +oooXXXo.X.  ",
" .o.OOOOOOOOOOOOOOOOOOOOOOOOOOOO.o.  .o+++oooX@Xoo.X.  ",
" .o.OOOOOOOOOOOOOOOOOOOOOOOOOOOO.o.  .oo+ +oooXXXo.X.  ",
" .o.OOOOOOOOOOOOOOOOOOOOOOOOOOOO.o.  .o+++oooX@Xoo.X.  ",
" .o.OOOOOOOOOOOOOOOOOOOOOOOOOOOO.o.  .oo+ +oooXXXo.X.  ",
" .o.OOOOOOOOOOOOOOOOOOOOOOOOOOOO.o.  .o+++oooX@Xoo.X.  ",
" .o.OOOOOOOOOOOOOOOOOOOOOOOOOOOO.o.  .oo+ +oooXXXo.X.  ",
" .o.OOOOOOOOOOOOOOOOOOOOOOOOOOOO.o.  .o+++oooX@Xoo.X.  ",
" .o.OOOOOOOOOOOOOOOOOOOOOOOOOOOO.o.  .oo+ +oooXXXo.X.  ",
" .o.OOOOOOOOOOOOOOOOOOOOOOOOOOOO.o.  .o+++oooX@Xoo.X.  ",
" .o.OOOOOOOOOOOOOOOOOOOOOOOOOOOO.o.  .oo+ +oooXXXo.X.  ",
" .o.OOOOOOOOOOOOOOOOOOOOOOOOOOOO.o.  .o+++oooX@Xoo.X.  ",
" .oX............................Xo.  .oo+ +oooXXXo.X.  ",
" .oooooooooooooooooooooooooooooooo.  .o+++oooX@Xoo.X.  ",
" .Xoooooooooooooo$%ooooooooooooooX.  .oo+ +$%oXXXo.X.  ",
"  .XooooooooooooooooooooooooooooX.   .o+++oooX@Xoo.X.  ",
"   ......XXXXXXXXXXXXXXXXXX......    .oo+ +oooXXXo.X.  ",
"       ###..@@@@@@@@@@@@..###        .o+++oooX@Xoo.X.  ",
"       ######################        ................  ",
"....................................                   ",
".o+++++++++++++++++++++++ooooo++++o..      ...         ",
".o+++++++++++++++++++++++oo+oo++++o. ..   .   .        ",
".o+++++++++++++++++++++++o+++o++++o.   ...   ....      ",
".o@@@@@@@@@@@@@@@@@@@@@@@o@@@o@@@@o.         .+X.      ",
".oooooooooooooooooooooooooooooooooo.        .X+XX.     ",
".XXXXXXXXXXXXXXXXXXXXXXXXXXXXXXXXXX.        .+ooX.     ",
"....................................        .+ooX.     ",
"                                            .o+oX.     ",
"                                             ....      "};
