/* XPM */
static char * mandriva_xpm[] = {
"28 24 109 2",
"  	c None",
". 	c #FFFFFF",
"+ 	c #FFBF00",
"@ 	c #FFBC0B",
"# 	c #FFC001",
"$ 	c #FFB80A",
"% 	c #FFB601",
"& 	c #FFC000",
"* 	c #FFBC00",
"= 	c #FFB600",
"- 	c #F7AE0C",
"; 	c #2758BC",
"> 	c #FFCB20",
", 	c #FFCB24",
"' 	c #FFC711",
") 	c #FFCA0B",
"! 	c #FFB900",
"~ 	c #FFB300",
"{ 	c #F9A807",
"] 	c #FFC629",
"^ 	c #FFCA2B",
"/ 	c #FFCA22",
"( 	c #FFC819",
"_ 	c #FFC40F",
": 	c #FFC107",
"< 	c #FFBD00",
"[ 	c #FFAC00",
"} 	c #FFC329",
"| 	c #FFC81C",
"1 	c #FFC615",
"2 	c #FFC30C",
"3 	c #FFC104",
"4 	c #FFB100",
"5 	c #FFB200",
"6 	c #FF9E00",
"7 	c #DF9600",
"8 	c #FFBF1B",
"9 	c #FFAE00",
"0 	c #FFAA00",
"a 	c #FFA400",
"b 	c #FFA100",
"c 	c #FC9D00",
"d 	c #F29A00",
"e 	c #F09700",
"f 	c #2051AE",
"g 	c #2A5AB9",
"h 	c #E9AA2A",
"i 	c #FFBC0C",
"j 	c #FFAB00",
"k 	c #FFA800",
"l 	c #FFA700",
"m 	c #FFA000",
"n 	c #C68F22",
"o 	c #CB8D11",
"p 	c #2654B5",
"q 	c #FFAE11",
"r 	c #FFBA00",
"s 	c #F99C00",
"t 	c #DB960C",
"u 	c #D9940B",
"v 	c #D18F0C",
"w 	c #FC9E00",
"x 	c #DC970C",
"y 	c #BF8D2D",
"z 	c #C48C1D",
"A 	c #1B4CAB",
"B 	c #FFA500",
"C 	c #E49C05",
"D 	c #1647A5",
"E 	c #FFB500",
"F 	c #FB9D00",
"G 	c #1143A3",
"H 	c #0E409E",
"I 	c #FFAF00",
"J 	c #D29213",
"K 	c #0C409D",
"L 	c #16459A",
"M 	c #EEA105",
"N 	c #D69A1D",
"O 	c #E39A07",
"P 	c #FF9C00",
"Q 	c #F99A00",
"R 	c #00318F",
"S 	c #073C97",
"T 	c #0A3C97",
"U 	c #083E94",
"V 	c #E0A01B",
"W 	c #C1963F",
"X 	c #1847A0",
"Y 	c #E69A00",
"Z 	c #FC9900",
"` 	c #F49700",
" .	c #013793",
"..	c #003592",
"+.	c #003090",
"@.	c #DD9D1C",
"#.	c #D19A2B",
"$.	c #968561",
"%.	c #F19A00",
"&.	c #F89700",
"*.	c #F19300",
"=.	c #DB9604",
"-.	c #00328F",
";.	c #00308C",
">.	c #00318C",
",.	c #E49600",
"'.	c #EE9200",
").	c #E29300",
"!.	c #D4920C",
". . . . . . . . . . . . . . . . . . . . . . . . . . . . ",
". . . . . . . . . . . . . . . . + @ . . . . . . . . . . ",
". . . . . . . . . . . . . . . + # $ . . . . . . . . . . ",
". . . . . . . . . . . . . . . + + % . . . . . . . . . . ",
". . . . . . . . . . . . . . & + * = - . . . . . . . . . ",
". . . ; . . > , ' ) . . . + + * ! ~ { . . . . . . . . . ",
". . ; ; . . ] ^ / ( _ : & < * ! = ~ [ . . . . . . . . . ",
". ; ; . . . . } | 1 2 3 < * ! = ~ 4 [ 5 . . . . 6 . 7 . ",
". ; ; . . . . . 8 2 3 + * ! = ~ 4 9 [ 0 0 a b c d e . . ",
"f g ; . . . . . h i < * ! = ~ 4 9 j k l a b m 6 . . n o ",
"f p ; . . . . . . q r ! = ~ 4 9 j k l a b 6 s t u v . . ",
"f f ; . . . . . . . = = ~ 4 9 j k l a b w x . . y . z . ",
"f A A . . . . . . ~ = ~ 4 9 j k B a b C . . . . . . . . ",
"f D A . . . . . . E ~ 4 9 j k l a b F . . . . . . . . . ",
"f G H H . . . . I ~ 4 9 j k B a m 6 c J . . . . . . . . ",
". K H L . . . . 5 4 9 0 M N O b 6 P Q J . . . . . . . . ",
". R S T U . . E I k V W X X . Y P Z ` J . . . . . . . . ",
". . R  ...+.. @.#.$.T X X . . . %.&.*.=.J . . . . . . . ",
". . R R -.R ;.>.T T T . . . . . . ,.'.).J . . . . . . . ",
". . . . R R R R ;.. . . . . . . . . ).!.J . . . . . . . ",
". . . . . . . . . . . . . . . . . . . J J . . . . . . . ",
". . . . . . . . . . . . . . . . . . . . . . . . . . . . ",
". . . . . . . . . . . . . . . . . . . . . . . . . . . . ",
". . . . . . . . . . . . . . . . . . . . . . . . . . . . "};
