/* XPM */
static char * mandriva_xpm[] = {
"28 24 241 2",
"  	c None",
". 	c #B8B8B8",
"+ 	c #BBB7AD",
"@ 	c #C5B697",
"# 	c #D4B574",
"$ 	c #B8B6B2",
"% 	c #BAB7B3",
"& 	c #DFB662",
"* 	c #E9B242",
"= 	c #B9B3A7",
"- 	c #D1B67E",
"; 	c #F6B42E",
"> 	c #EFB132",
", 	c #BDB19B",
"' 	c #AFB1B7",
") 	c #B4B5B7",
"! 	c #C3B79C",
"~ 	c #E9B445",
"{ 	c #F8B226",
"] 	c #F3B025",
"^ 	c #C3B08A",
"/ 	c #AFB2B8",
"( 	c #9EA4B3",
"_ 	c #B2B3B4",
": 	c #BCB7AE",
"< 	c #C9B897",
"[ 	c #C4B8A0",
"} 	c #BEB7AA",
"| 	c #BAB7B1",
"1 	c #B8B7B6",
"2 	c #B9B8B5",
"3 	c #DCB463",
"4 	c #F7B226",
"5 	c #F8B021",
"6 	c #F5AE1C",
"7 	c #CAAF74",
"8 	c #B7B7B7",
"9 	c #8E9AB4",
"0 	c #99A0AF",
"a 	c #B6B6B6",
"b 	c #BEB6A6",
"c 	c #E1B866",
"d 	c #F3BC4F",
"e 	c #EEB952",
"f 	c #E6B85B",
"g 	c #DEB868",
"h 	c #D6B674",
"i 	c #F5B226",
"j 	c #F8B020",
"k 	c #F7AF1B",
"l 	c #F7AD15",
"m 	c #D4AD5B",
"n 	c #B6B6B5",
"o 	c #9CA4B6",
"p 	c #7B8AAE",
"q 	c #AEAFB0",
"r 	c #C6B592",
"s 	c #EAB850",
"t 	c #F9BA3D",
"u 	c #F9B837",
"v 	c #F8B632",
"w 	c #F6B42B",
"x 	c #F6B226",
"y 	c #F7AB0F",
"z 	c #E3AA33",
"A 	c #C3B393",
"B 	c #B9B6B2",
"C 	c #BDB39F",
"D 	c #BEB29B",
"E 	c #B7B6B5",
"F 	c #B5B6B7",
"G 	c #7B8DB3",
"H 	c #8692AB",
"I 	c #CCB382",
"J 	c #F2B63C",
"K 	c #F8B631",
"L 	c #F8B42C",
"M 	c #F7AE1A",
"N 	c #F6A90A",
"O 	c #F4A709",
"P 	c #E9A721",
"Q 	c #DDA940",
"R 	c #D0AD65",
"S 	c #C5B28A",
"T 	c #BDB5A6",
"U 	c #C3AA79",
"V 	c #C6A86C",
"W 	c #BCA36F",
"X 	c #B3B1AE",
"Y 	c #A9ADB6",
"Z 	c #617BAF",
"` 	c #99A0AC",
" .	c #B4B4B4",
"..	c #D2B270",
"+.	c #F1A509",
"@.	c #EFA309",
"#.	c #ECA109",
"$.	c #E79F09",
"%.	c #E49F11",
"&.	c #DCA027",
"*.	c #D1A142",
"=.	c #C1A058",
"-.	c #BB9B5A",
";.	c #BCA679",
">.	c #B8B4AA",
",.	c #98A1B4",
"'.	c #5772AB",
").	c #A1A5AE",
"!.	c #B7B4AD",
"~.	c #DCB158",
"{.	c #E99F09",
"].	c #E69D09",
"^.	c #E39C09",
"/.	c #D09928",
"(.	c #C49945",
"_.	c #BA9B5A",
":.	c #BD9B57",
"<.	c #AFA695",
"[.	c #8A96B2",
"}.	c #526EA9",
"|.	c #A3A7B0",
"1.	c #D0B274",
"2.	c #F7AC14",
"3.	c #E59E09",
"4.	c #D39A27",
"5.	c #BD9D5D",
"6.	c #AEA696",
"7.	c #B3A486",
"8.	c #B2A384",
"9.	c #B9A478",
"0.	c #B7AF9F",
"a.	c #8090AE",
"b.	c #4C6AA6",
"c.	c #A1A5AF",
"d.	c #DEB156",
"e.	c #EEA309",
"f.	c #DA9C1C",
"g.	c #BE9E5B",
"h.	c #B0B0B1",
"i.	c #B5B3AF",
"j.	c #B3B3B4",
"k.	c #B3B2B1",
"l.	c #8190AD",
"m.	c #4364A2",
"n.	c #979FAD",
"o.	c #C9B489",
"p.	c #F2AC1F",
"q.	c #F7AA0E",
"r.	c #E59D0A",
"s.	c #C2A25D",
"t.	c #AFAFB0",
"u.	c #8995AD",
"v.	c #3B5D9F",
"w.	c #828FAA",
"x.	c #B9B7B3",
"y.	c #DFB050",
"z.	c #EDA309",
"A.	c #E19B0A",
"B.	c #C1A670",
"C.	c #97A1B0",
"D.	c #3B5D9C",
"E.	c #6178A3",
"F.	c #B4B4B5",
"G.	c #CBB485",
"H.	c #F2AB18",
"I.	c #F1A60B",
"J.	c #E1A121",
"K.	c #CBA048",
"L.	c #C19B4C",
"M.	c #DF9E1B",
"N.	c #E39B09",
"O.	c #E09A09",
"P.	c #C3A567",
"Q.	c #B6B6B7",
"R.	c #ACAFB4",
"S.	c #4E6C9D",
"T.	c #3B5D99",
"U.	c #8A96AB",
"V.	c #BAB7B2",
"W.	c #E0AF4A",
"X.	c #EDA716",
"Y.	c #D4A139",
"Z.	c #BFA267",
"`.	c #A69F93",
" +	c #858FA2",
".+	c #8E96A4",
"++	c #BFA570",
"@+	c #DA9C1E",
"#+	c #E19A09",
"$+	c #DD9809",
"%+	c #C4A35F",
"&+	c #7889A6",
"*+	c #2E5395",
"=+	c #49679B",
"-+	c #8895AB",
";+	c #B3B4B6",
">+	c #BBB5A9",
",+	c #C5A76B",
"'+	c #B5A380",
")+	c #9A9DA2",
"!+	c #7D8CA5",
"~+	c #7988A1",
"{+	c #8891A3",
"]+	c #AFB0B0",
"^+	c #B5B5B5",
"/+	c #C2A873",
"(+	c #D69A1D",
"_+	c #DA9609",
":+	c #C6A156",
"<+	c #ABADB1",
"[+	c #5C739B",
"}+	c #295091",
"|+	c #315693",
"1+	c #536E9C",
"2+	c #677DA1",
"3+	c #63799D",
"4+	c #58719C",
"5+	c #5C7198",
"6+	c #73829C",
"7+	c #A2A5A9",
"8+	c #B5B5B6",
"9+	c #C0A772",
"0+	c #D2961C",
"a+	c #C59E4D",
"b+	c #A6A8AD",
"c+	c #6C7E9C",
"d+	c #476291",
"e+	c #3A5B90",
"f+	c #415F8F",
"g+	c #586F93",
"h+	c #78859B",
"i+	c #9EA1A7",
"j+	c #B1B1B1",
"k+	c #BFA672",
"l+	c #BC9F65",
"m+	c #B5B4B3",
"n+	c #A6A9AD",
"o+	c #A0A3A9",
"p+	c #A4A7AB",
"q+	c #ADAEAF",
"r+	c #B4B0A8",
". . . . . . . . . . . . . . . . . . . . . . . . . . . . ",
". . . . . . . . . . . . . . . . + . . . . . . . . . . . ",
". . . . . . . . . . . . . . . @ # $ . . . . . . . . . . ",
". . . . . . . . . . . . . . % & * = . . . . . . . . . . ",
". . . . . . . . . . . . . . - ; > , . . . . . . . . . . ",
". . . ' ) . . . . . . . . ! ~ { ] ^ . . . . . . . . . . ",
". . / ( _ : < [ } | 1 . 2 3 4 5 6 7 8 . . . . . . . . . ",
". . 9 0 a b c d e f g h 3 i j k l m n . . . . . . . . . ",
". o p q . . r s t u v w x j k l y z A B . . . C 8 D E . ",
"F G H a . . 8 I J K L { j M l y N O P Q R S T U V W X . ",
"Y Z ` . . . .  ...w { j M l y N O +.@.#.$.%.&.*.=.-.;.>.",
",.'.).. . . . . !.~.j M l y N O +.@.#.{.].^./.(._.:.<. .",
"[.}.|.. . . . . . 1.6 2.y N O +.@.#.{.3.4.5.6.7.8.9.0.. ",
"a.b.c.. . . . . 2 d.2.y N O +.e.#.{.f.g.<.h.8 i.j.k. .. ",
"l.m.n.. . . . . o.p.q.N O +.e.#.{.r.s.t.8 . . . . . . . ",
"u.v.w.8 . . . x.y.q.N O +.z.#.{.].A.B.8 . . . . . . . . ",
"C.D.E.F.. . . G.H.N I.J.K.L.M.].N.O.P.Q.. . . . . . . . ",
"R.S.T.U.. . V.W.X.Y.Z.`. +.+++@+#+$+%+a . . . . . . . . ",
"8 &+*+=+-+;+>+,+'+)+!+~+{+]+^+/+(+_+:+n . . . . . . . . ",
". <+[+}+|+1+2+3+4+5+6+7+ .. . 8+9+0+a+^+. . . . . . . . ",
". . b+c+d+e+f+g+h+i+j+8 . . . . a k+l+m+. . . . . . . . ",
". . . F.n+o+p+q+ .8 . . . . . . . ^+r+a . . . . . . . . ",
". . . . . . . . . . . . . . . . . . . . . . . . . . . . ",
". . . . . . . . . . . . . . . . . . . . . . . . . . . . "};
