/* XPM */
static char * nextcpu_xpm[] = {
"55 45 6 1",
" 	c None",
".	c #333333",
"X	c #000000",
"o	c #669933",
"O	c #cc0033",
"+	c #555555",
"  ................................                     ",
" ..XXXXXXXXXXXXXXXXXXXXXXXXXXXXXX..                    ",
" .XXXXXXXXXXXXXXXXXXXXXXXXXXXXXXXX.                    ",
" .X..............................X.                    ",
" .X.XXXXXXXXXXXXXXXXXXXXXXXXXXXX.X.                    ",
" .X.XXXXXXXXXXXXXXXXXXXXXXXXXXXX.X.                    ",
" .X.XXXXXXXXXXXXXXXXXXXXXXXXXXXX.X.                    ",
" .X.XXXXXXXXXXXXXXXXXXXXXXXXXXXX.X.                    ",
" .X.XXXXXXXXXXXXXXXXXXXXXXXXXXXX.X.                    ",
" .X.XXXXXXXXXXXXXXXXXXXXXXXXXXXX.X.                    ",
" .X.XXXXXXXXXXXXXXXXXXXXXXXXXXXX.X.                    ",
" .X.XXXXXXXXXXXXXXXXXXXXXXXXXXXX.X.                    ",
" .X.XXXXXXXXXXXXXXXXXXXXXXXXXXXX.X.                    ",
" .X.XXXXXXXXXXXXXXXXXXXXXXXXXXXX.X.                    ",
" .X.XXXXXXXXXXXXXXXXXXXXXXXXXXXX.X.                    ",
" .X.XXXXXXXXXXXXXXXXXXXXXXXXXXXX.X. ...................",
" .X.XXXXXXXXXXXXXXXXXXXXXXXXXXXX.X. .XXXXXXXXXXXXXXXXX.",
" .X.XXXXXXXXXXXXXXXXXXXXXXXXXXXX.X. .XXXXX.......XXXXX.",
" .X.XXXXXXXXXXXXXXXXXXXXXXXXXXXX.X. .XXXXXXXXXXXXXXXXX.",
" .X.XXXXXXXXXXXXXXXXXXXXXXXXXXXX.X. .XXXXX.......XXXXX.",
" .X.XXXXXXXXXXXXXXXXXXXXXXXXXXXX.X. .XXXXXXXXXXXXXXXXX.",
" .X.XXXXXXXXXXXXXXXXXXXXXXXXXXXX.X. .XXXXX.......XXXXX.",
" .X.XXXXXXXXXXXXXXXXXXXXXXXXXXXX.X. .XXXXXXXXXXXXXXXXX.",
" .X.XXXXXXXXXXXXXXXXXXXXXXXXXXXX.X. .XXXXX.......XXXXX.",
" .X.XXXXXXXXXXXXXXXXXXXXXXXXXXXX.X. .XXXXXXXXXXXXXXXXX.",
" .X.XXXXXXXXXXXXXXXXXXXXXXXXXXXX.X. .XXXXX.......XXXXX.",
" .X.XXXXXXXXXXXXXXXXXXXXXXXXXXXX.X. .XXXXXXXXXXXXXXXXX.",
" .X.XXXXXXXXXXXXXXXXXXXXXXXXXXXX.X. .XXXXX.......XXXXX.",
" .X..............................X. .XXXXXXXXXXXXXXXXX.",
" .XXXXXXXXXXXXXXXXXXXXXXXXXXXXXXXX. .XXXXX.......XXXXX.",
" .XXXXXXXXXXXXXXXoOXXXXXXXXXXXXXXX. .XXXXXXXXXXXXXXXXX.",
" ..XXXXXXXXXXXXXXXXXXXXXXXXXXXXXX.. .XXXXX.......XXXXX.",
"  ................................  .XXXXXXXXXXXXXXXXX.",
"            XXXXXXXXXXXX            .XXXXX.......XXXXX.",
"      ......XXXXXXXXXXXX......      ...................",
"      XXXXXXXXXXXXXXXXXXXXXXXX                         ",
" ....................................      ...         ",
" .XXXXXXXXXXXXXXXXXXXXXXXXXXXXXXXX.  ..   .   .        ",
" .X.....................XXXXX....X.    ...  .....      ",
" .X.....................XX.XX....X.         .X.X.      ",
" .X.....................X...X....X.         .....      ",
" .X+++++++++++++++++++++X+++X++++X.         .XXX.      ",
" .XXXXXXXXXXXXXXXXXXXXXXXXXXXXXXXX.         .XXX.      ",
" ..................................         .XXX.      ",
"                                            .....      "};
