/* XPM */
static char * os2cpu_xpm[] = {
"55 45 9 1",
" 	c #888888",
".	c None",
"X	c #cccccc",
"o	c #bbbbbb",
"O	c #000000",
"+	c #eeeeee",
"@	c #666666",
"#	c #555555",
"$	c #999999",
"                                    ...................",
" XXXXXXXXXXXXXXXXXXXXXXXXXXXXXXXXXX ...................",
" XooooooooooooooooooooooooooooooooX ...................",
" Xo                              oX ...................",
" Xo OOOOOOOOOOOOOOOOOOOOOOOOOOOO oX ...................",
" Xo OOOOOOOOOOOOOOOOOOOOOOOOOOOO oX ...................",
" Xo OOOOOOOOOOOOOOOOOOOOOOOOOOOO oX ..               ..",
" Xo OOOOOOOOOOOOOOOOOOOOOOOOOOOO oX .. +++++++++++++ ..",
" Xo OOOOOOOOOOOOOOOOOOOOOOOOOOOO oX .. +ooooooooooo+ ..",
" Xo OOOOOOOOOOOOOOOOOOOOOOOOOOOO oX .. +ooo     ooo+ ..",
" Xo OOOOOOOOOOOOOOOOOOOOOOOOOOOO oX .. +oooo   o+oo+ ..",
" Xo OOOOOOOOOOOOOOOOOOOOOOOOOOOO oX .. +oo+oooooooo+ ..",
" Xo OOOOOOOOOOOOOOOOOOOOOOOOOOOO oX .. +o +       o+ ..",
" Xo OOOOOOOOOOOOOOOOOOOOOOOOOOOO oX .. +oo+o   oooo+ ..",
" Xo OOOOOOOOOOOOOOOOOOOOOOOOOOOO oX .. +ooooooooooo+ ..",
" Xo OOOOOOOOOOOOOOOOOOOOOOOOOOOO oX .. +++++++++++++ ..",
" Xo OOOOOOOOOOOOOOOOOOOOOOOOOOOO oX .. ++++++++++  + ..",
" Xo OOOOOOOOOOOOOOOOOOOOOOOOOOOO oX .. ++++++++++oo+ ..",
" Xo OOOOOOOOOOOOOOOOOOOOOOOOOOOO oX .. +++++++++++++ ..",
" Xo OOOOOOOOOOOOOOOOOOOOOOOOOOOO oX .. +++++++++++++ ..",
" Xo OOOOOOOOOOOOOOOOOOOOOOOOOOOO oX .. +           + ..",
" Xo OOOOOOOOOOOOOOOOOOOOOOOOOOOO oX .. +     o o o + ..",
" Xo OOOOOOOOOOOOOOOOOOOOOOOOOOOO oX .. +           + ..",
" Xo OOOOOOOOOOOOOOOOOOOOOOOOOOOO oX .. +++++++++++++ ..",
" Xo OOOOOOOOOOOOOOOOOOOOOOOOOOOO oX .. + + + +++++++ ..",
" Xo OOOOOOOOOOOOOOOOOOOOOOOOOOOO oX .. + + + +++++++ ..",
" Xo OOOOOOOOOOOOOOOOOOOOOOOOOOOO oX .. + + + +++++++ ..",
" Xo OOOOOOOOOOOOOOOOOOOOOOOOOOOO oX .. + + + ++++  + ..",
" Xo                              oX .. + + + ++++  + ..",
" XooooooooooooooooooooooooooooooooX .. + + + +++++++ ..",
" XXXXXXXXXXXXXXXXXXXXXXXXXXXXXXXXXX ..               ..",
"                                    .. X X X XXXXXoX ..",
"... @ @ @ @ @ @ @ @ @ @ @ @ @ @ @..... X X X XXXXXXX ..",
"... @ @ @ @ @ @ @ @ @ @ @ @ @ @ @.....               ..",
"......##@@@@@@@@@@@@@@@@@@@@##.........             ...",
"......#####@@@@@@@@@@@@@@#####.........................",
"                                     ......   .........",
" XXXXXXXXXXXXXXXXXXXXXXXXXXXXXXXXXX .  ... ... ........",
" Xo+++++++++++++++++++oooXXXXXooooX ...   ..      .....",
" Xoo+++++++++++++++++++ooXXoXX+++oX ........ oo o .....",
" Xoooo+++++++++++++++ooooXoooX+++oX ........      .....",
" X$$$$$$$$$$$$$$$$$$$$$$$X$$$X$$$$X ........ oooo .....",
" XXXXXXXXXXXXXXXXXXXXXXXXXXXXXXXXXX ........ oooo .....",
" oooooooooooooooooooooooooooooooooo ........ oooo .....",
"                                    ........      ....."};
