/* XPM */
static char * sgicpu_xpm[] = {
"55 45 10 1",
" 	c None",
".	c #666666",
"X	c #888888",
"o	c #000000",
"O	c #444444",
"+	c #00ff00",
"@	c #666699",
"#	c #996699",
"$	c #bbbbbb",
"%	c #999999",
"  ................................                     ",
" .XXXXXXXXXXXXXXXXXXXXXXXXXXXXXXXX.                    ",
" .XXXXXXXXXXXXXXXXXXXXXXXXXXXXXXXX.                    ",
" .XX............................XX.                    ",
" .X.oooooooooooooooooooooooooooo.X.  OOOOOOOOOOOOOOOOO ",
" .X.oooooooooooooooooooooooooooo.X.  O+@    @@@@@@@@@O ",
" .X.oooooooooooooooooooooooooooo.X.  O@@@@@@@OOOOOOOOO ",
" .X.oooooooooooooooooooooooooooo.X.  O@@@@@@@@@@@@@@@O ",
" .X.oooooooooooooooooooooooooooo.X.  O@@@@@@@OOOOOOOOO ",
" .X.oooooooooooooooooooooooooooo.X.  O@@@@@@@@@@@@@@@O ",
" .X.oooooooooooooooooooooooooooo.X.  O@@@@@@@OOOOOOOOO ",
" .X.oooooooooooooooooooooooooooo.X.  O@@@@@@@@@@@@@@@O ",
" .X.oooooooooooooooooooooooooooo.X.  OOOOOOOOOOOOOOOOO ",
" .X.oooooooooooooooooooooooooooo.X.  O@@@@@#O@@@@@@@@O ",
" .X.oooooooooooooooooooooooooooo.X.  O@@@@@#O@@@@@@@@O ",
" .X.oooooooooooooooooooooooooooo.X.  O@@@@@#O@@@@@@@@O ",
" .X.oooooooooooooooooooooooooooo.X.  O@@@@@#O@@@@@@@@O ",
" .X.oooooooooooooooooooooooooooo.X.  O@@@@@#O@@@@@@@@O ",
" .X.oooooooooooooooooooooooooooo.X.  O@@@@@#O@@@@@@@@O ",
" .X.oooooooooooooooooooooooooooo.X.  O@@@@@#O@@@@@@@@O ",
" .X.oooooooooooooooooooooooooooo.X.  O@@@@@#O@@@@@@@@O ",
" .X.oooooooooooooooooooooooooooo.X.  O@@@@@#O@@@@@@@@O ",
" .X.oooooooooooooooooooooooooooo.X.  O@@@@@#O@@@@@@@@O ",
" .X.oooooooooooooooooooooooooooo.X.  O@@@@@#O@@@@@@@@O ",
" .X.oooooooooooooooooooooooooooo.X.  O@@@@@#O@@@@@@@@O ",
" .X.oooooooooooooooooooooooooooo.X.  O@@@@@#O@@@@@@@@O ",
" .X.oooooooooooooooooooooooooooo.X.  OOOOOOOOOOOOOOOOO ",
" .X.oooooooooooooooooooooooooooo.X.  O@@@@@@@@@@@@@@@O ",
" .XX............................XX.  OOOOOOOOOOOOOOOOO ",
" .XOXOOOOXXXXXXXXXXXXXXXXXXXXXXXXX.  O@@@@@@@@@@@@@@@O ",
" .XXXXXXXXXXXXXXXXXXXXXXXXXXXXXXXX.  OOOOOOOOOOOOOOOOO ",
"  ................................   O@@@@@@@@@@@@@@@O ",
"       .XXXXXXXXXXXXXXXXX$$X.        OOOOOOOOOOOOOOOOO ",
"       .XXXXXXXXXXXXXXXXXXXX.        O@@@@@@@@@@@@@@@O ",
"       O....................O        OOOOOOOOOOOOOOOOO ",
"       OOOOOOOOOOOOOOOOOOOOOO                          ",
"....................................O      OOO         ",
".XOOXOOOOXXXXXXXXXXXXXXXXXXXXXXXXXX. OO   O   O        ",
".X%%%%%%%%%%%%%%%%%%%%%%X...X%%%%.X.   OOO   OOOO      ",
".X%%%%%%%%%%%%%%%%%%%%%%XOOOX%%%%.X.        OOX.OO     ",
".X...%%%%%%%%%%%%%%%%%%%XX.XX%%%%.X.        O.X..O     ",
".X..O..%%%%%%%%%%%%..O..X...X.....X.        OXX..O     ",
".XOOXOOOOOOOOOOOOOOOOXOOXOOOXOOOOOX.        OXX..O     ",
".XXXXXXXXXXXXXXXXXXXXXXXXXXXXXXXXXX.        O.XX.O     ",
"....................................         OOOO      "};
