/* XPM */
static char * slackware_xpm[] = {
"28 24 287 2",
"  	c None",
". 	c #B8B8B8",
"+ 	c #B7B7B8",
"@ 	c #A4A7B4",
"# 	c #8B94B1",
"$ 	c #7683AF",
"% 	c #6879AE",
"& 	c #6173AE",
"* 	c #6274AF",
"= 	c #6878AE",
"- 	c #7684AF",
"; 	c #8C95B2",
"> 	c #A5A8B5",
", 	c #B5B6B8",
"' 	c #9DA2B3",
") 	c #7986B1",
"! 	c #596DAD",
"~ 	c #4E65AF",
"{ 	c #4E65B1",
"] 	c #4F66B2",
"^ 	c #4E65B2",
"/ 	c #4E64AF",
"( 	c #5A6FAD",
"_ 	c #7885AF",
": 	c #A0A6B4",
"< 	c #B3B4B8",
"[ 	c #8892B1",
"} 	c #5A6EAE",
"| 	c #4F65B0",
"1 	c #4D64AF",
"2 	c #5D6FAE",
"3 	c #8891B0",
"4 	c #AEB0B5",
"5 	c #AEB1B7",
"6 	c #7A87B1",
"7 	c #5065AD",
"8 	c #576BAF",
"9 	c #7F89AD",
"0 	c #ABADB4",
"a 	c #7E8AB0",
"b 	c #4F66AE",
"c 	c #5169B3",
"d 	c #5469B0",
"e 	c #5367A9",
"f 	c #5365A3",
"g 	c #5466A5",
"h 	c #5468AA",
"i 	c #596DB1",
"j 	c #5669AA",
"k 	c #566AAA",
"l 	c #5268B0",
"m 	c #4F66B3",
"n 	c #566CAE",
"o 	c #808BAF",
"p 	c #ADAFB5",
"q 	c #8D95B1",
"r 	c #5167AD",
"s 	c #566BB2",
"t 	c #4F63A2",
"u 	c #455892",
"v 	c #455790",
"w 	c #465792",
"x 	c #465791",
"y 	c #42538C",
"z 	c #43548D",
"A 	c #3D4E89",
"B 	c #4A5C97",
"C 	c #5267AD",
"D 	c #4F67B3",
"E 	c #4F65B1",
"F 	c #5A6DAD",
"G 	c #9098B2",
"H 	c #AAADB6",
"I 	c #6576AE",
"J 	c #5066B2",
"K 	c #546AB3",
"L 	c #4E609D",
"M 	c #44548A",
"N 	c #4D5F9B",
"O 	c #566AAD",
"P 	c #546AB1",
"Q 	c #556AB0",
"R 	c #5367A8",
"S 	c #4C5D99",
"T 	c #475893",
"U 	c #5166AB",
"V 	c #5067B3",
"W 	c #6777AC",
"X 	c #A3A7B3",
"Y 	c #8892B0",
"Z 	c #4E65AE",
"` 	c #5468AD",
" .	c #3F4F87",
"..	c #4B5C95",
"+.	c #5066AE",
"@.	c #5267AC",
"#.	c #4B5C94",
"$.	c #4A5B92",
"%.	c #5065A9",
"&.	c #566AAF",
"*.	c #8992B1",
"=.	c #B2B3B7",
"-.	c #6B7AAE",
";.	c #4F66B1",
">.	c #5266A9",
",.	c #39497B",
"'.	c #49598F",
").	c #4F65AE",
"!.	c #5267AE",
"~.	c #5569AD",
"{.	c #5167B1",
"].	c #4D63AE",
"^.	c #6F7DAD",
"/.	c #ABADB5",
"(.	c #A6AAB5",
"_.	c #586BAC",
":.	c #5368B0",
"<.	c #404F82",
"[.	c #3B4773",
"}.	c #455489",
"|.	c #4F619D",
"1.	c #5165A6",
"2.	c #5266AA",
"3.	c #5368AE",
"4.	c #5268B1",
"5.	c #5067B2",
"6.	c #6272AD",
"7.	c #9DA2B2",
"8.	c #999FB2",
"9.	c #5066AD",
"0.	c #4C5F9F",
"a.	c #3F4D7C",
"b.	c #2F3A61",
"c.	c #2C375E",
"d.	c #2E3A61",
"e.	c #323E65",
"f.	c #37436C",
"g.	c #3F4D79",
"h.	c #48598F",
"i.	c #5267AB",
"j.	c #5169B4",
"k.	c #5A6EAD",
"l.	c #9299B1",
"m.	c #939BB2",
"n.	c #4F65AF",
"o.	c #5367AE",
"p.	c #4F62A0",
"q.	c #4B5B93",
"r.	c #475689",
"s.	c #43507F",
"t.	c #3B4871",
"u.	c #2E395C",
"v.	c #27304F",
"w.	c #39456F",
"x.	c #4E61A3",
"y.	c #5168B5",
"z.	c #8C94AF",
"A.	c #5063A6",
"B.	c #4F63A4",
"C.	c #4F66B0",
"D.	c #5269B2",
"E.	c #4F63A0",
"F.	c #374267",
"G.	c #272E47",
"H.	c #415081",
"I.	c #5167B0",
"J.	c #8B93AE",
"K.	c #989FB3",
"L.	c #5168B1",
"M.	c #384368",
"N.	c #2F3856",
"O.	c #4D5F9E",
"P.	c #536AB7",
"Q.	c #3C4B7A",
"R.	c #1F253B",
"S.	c #394672",
"T.	c #5166AD",
"U.	c #596DAC",
"V.	c #9098AF",
"W.	c #5669AB",
"X.	c #5168B3",
"Y.	c #2B3452",
"Z.	c #141927",
"`.	c #38436A",
" +	c #4F64AA",
".+	c #4F67B4",
"++	c #5164A7",
"@+	c #303A5C",
"#+	c #23283A",
"$+	c #425182",
"%+	c #5268B2",
"&+	c #4E65B0",
"*+	c #6173AD",
"=+	c #9BA0B1",
"-+	c #B1B3B8",
";+	c #6777AD",
">+	c #5F70AA",
",+	c #6071AB",
"'+	c #28304A",
")+	c #0B0E19",
"!+	c #13151E",
"~+	c #2C3450",
"{+	c #424F7E",
"]+	c #4C5E97",
"^+	c #435180",
"/+	c #2E3651",
"(+	c #1D202A",
"_+	c #333B59",
":+	c #4B5FA1",
"<+	c #5067B5",
"[+	c #6C7BAD",
"}+	c #A9ABB4",
"|+	c #838DAE",
"1+	c #4F65AD",
"2+	c #5D6DA2",
"3+	c #5E6EA3",
"4+	c #5269B0",
"5+	c #303A5B",
"6+	c #1E222F",
"7+	c #2A324A",
"8+	c #242A3E",
"9+	c #1A1D28",
"0+	c #191B24",
"a+	c #181A22",
"b+	c #14171E",
"c+	c #202536",
"d+	c #394469",
"e+	c #4C60A2",
"f+	c #5368AD",
"g+	c #848EAF",
"h+	c #B7B7B7",
"i+	c #A4A8B4",
"j+	c #5D6FAC",
"k+	c #4E66B3",
"l+	c #5067B1",
"m+	c #4E62A6",
"n+	c #4B5E9C",
"o+	c #4D609F",
"p+	c #4A5B94",
"q+	c #4A5A90",
"r+	c #4C5D97",
"s+	c #5165A8",
"t+	c #4D64B0",
"u+	c #6373AC",
"v+	c #9EA3B3",
"w+	c #8791B0",
"x+	c #5C6DA3",
"y+	c #5C6993",
"z+	c #596AA3",
"A+	c #596AA5",
"B+	c #5A6CA7",
"C+	c #566CAF",
"D+	c #8992B0",
"E+	c #B5B5B8",
"F+	c #B2B4B7",
"G+	c #7784AF",
"H+	c #596DAB",
"I+	c #5E6C9E",
"J+	c #5F6E9E",
"K+	c #5F6E9D",
"L+	c #6271A4",
"M+	c #5C6EAC",
"N+	c #A8ABB3",
"O+	c #A9ADB6",
"P+	c #7482AD",
"Q+	c #5167AE",
"R+	c #7481AD",
"S+	c #A7A9B4",
"T+	c #ACAEB6",
"U+	c #7D88B0",
"V+	c #5367AC",
"W+	c #576BAD",
"X+	c #7C87AD",
"Y+	c #A8ABB4",
"Z+	c #6C7BAE",
"`+	c #5268AD",
" @	c #4E66B2",
".@	c #959BB1",
"+@	c #B1B2B7",
"@@	c #979DB2",
"#@	c #5C6EAD",
"$@	c #586BAD",
"%@	c #566AAC",
"&@	c #6878AD",
"*@	c #7D88AF",
"=@	c #989EB2",
"-@	c #B1B3B7",
". . . . . . . . + @ # $ % & * = - ; > , . . . . . . . . ",
". . . . . . . ' ) ! ~ { ] ] ] ^ { / ( _ : + . . . . . . ",
". . . . . < [ } | ] ] ] ] ] ] ] ] ] ] 1 2 3 4 . . . . . ",
". . . . 5 6 7 ] ] ] ] ] ] ] ] ] ] ] ] ] ] 8 9 0 . . . . ",
". . . . a b ] ] ] ] c d e f g h i j k l ] m n o p . . . ",
". . . q r ] ] ] ] s t u v w x y z A B C D ] E F G . . . ",
". . H I J ] ] ] K L M N O P Q R S A T U V ] m 1 W X . . ",
". . Y Z ] ] ] ] `  ...+.m ] ] m @.#.$.%.V ] ] m &.*.. . ",
". =.-.;.] ] ] m >.,.'.).m ] ] ] ] !.~.{.] ] ] V ].^./.. ",
". (._.] ] ] ] ] :.<.[.}.|.1.2.3.4.5.] ] ] ] ] ] { 6.7.. ",
". 8.9.] ] ] ] ] D 0.a.b.c.d.e.f.g.h.i.j.] ] ] ] ] k.l.. ",
". m.n.] ] ] ] ] ] ] o.p.q.r.s.t.u.v.w.x.y.] ] ] m O z.. ",
". m.n.] ] ] ] m A.B.C.] ] ] 5.D.E.F.G.H.I.m ] ] m ` J.. ",
". K.r m ] ] ] L.M.N.O.5.] ] ] ] P.Q.R.S.T.m ] ] ] U.V.. ",
". @ W.] ] X.5.4.Y.Z.`. +V ] ] .+++@+#+$+%+m ] ] &+*+=+. ",
". -+;+] ] >+,+:.'+)+!+~+{+#.]+^+/+(+_+:+<+] ] D 1 [+}+. ",
". . |+1+m 2+3+4+5+6+7+8+9+0+a+b+c+d+e+<+] ] ] D f+g+h+. ",
". . i+j+k+2+3+l+m+n+n.9.o+p+q+r+s+l+] ] ] ] ] t+u+v+. . ",
". . . w+1+x+y+z+A+A+A+A+A+A+A+A+A+A+A+A+A+B+Q C+D+E+. . ",
". . . F+G+H+I+J+J+J+J+J+J+J+J+J+J+J+J+J+K+L+M+G+N+. . . ",
". . . . O+P+1+] ] ] ] ] ] ] ] ] ] ] ] ] m Q+R+S+. . . . ",
". . . . . T+U+V+] ] ] ] ] ] ] ] ] ] ] &+W+X+Y+. . . . . ",
". . . . . . + l.Z+`+&+] ] ] ] ]  @1 C [+.@=.. . . . . . ",
". . . . . . . . +@@@U+;+#@$@%@#@&@*@=@-@. . . . . . . . "};
