/* XPM */
static char * slackware_xpm[] = {
"28 24 181 2",
"  	c None",
". 	c #939393",
"+ 	c #4860AB",
"@ 	c #5970B6",
"# 	c #5E74B9",
"$ 	c #5E74BA",
"% 	c #5A70B7",
"& 	c #5C72B9",
"* 	c #627AC1",
"= 	c #6474AF",
"- 	c #24379D",
"; 	c #23379F",
"> 	c #273CA4",
", 	c #293DA6",
"' 	c #24389F",
") 	c #283CA4",
"! 	c #2F43AB",
"~ 	c #3D56BE",
"{ 	c #6B7FBF",
"] 	c #6278BA",
"^ 	c #6070A8",
"/ 	c #202E8D",
"( 	c #5668A6",
"_ 	c #6879B3",
": 	c #6C7EBB",
"< 	c #6D7EBA",
"[ 	c #6778AF",
"} 	c #394FAF",
"| 	c #213090",
"1 	c #3246AB",
"2 	c #6D80BE",
"3 	c #6576AE",
"4 	c #212E80",
"5 	c #1A2674",
"6 	c #5F7ACD",
"7 	c #5B71B8",
"8 	c #6A7CB7",
"9 	c #394CA6",
"0 	c #2A3994",
"a 	c #6E81BC",
"b 	c #4A5EB2",
"c 	c #172162",
"d 	c #1F2972",
"e 	c #556DBC",
"f 	c #6675AA",
"g 	c #2F4096",
"h 	c #6B7EBB",
"i 	c #5E6DA6",
"j 	c #131840",
"k 	c #10153B",
"l 	c #4B63C1",
"m 	c #6578B6",
"n 	c #6075B8",
"o 	c #667AB8",
"p 	c #38458F",
"q 	c #0F1232",
"r 	c #151839",
"s 	c #222756",
"t 	c #2F3572",
"u 	c #4352A2",
"v 	c #5F6CA0",
"w 	c #6876AA",
"x 	c #687BB6",
"y 	c #677BB9",
"z 	c #4354A7",
"A 	c #141630",
"B 	c #0D0F24",
"C 	c #0C0D21",
"D 	c #0D0D21",
"E 	c #0D0D23",
"F 	c #111229",
"G 	c #212348",
"H 	c #5976D3",
"I 	c #546FC5",
"J 	c #4E62B4",
"K 	c #43529B",
"L 	c #2D3360",
"M 	c #222445",
"N 	c #131427",
"O 	c #0B0A18",
"P 	c #2F3260",
"Q 	c #5C7CD6",
"R 	c #485892",
"S 	c #6377B4",
"T 	c #33396C",
"U 	c #2A2E57",
"V 	c #616EA2",
"W 	c #4A63AE",
"X 	c #4B63AF",
"Y 	c #4C64AF",
"Z 	c #4C64B0",
"` 	c #4D65AF",
" .	c #536AB2",
"..	c #6B79AC",
"+.	c #090812",
"@.	c #2D325B",
"#.	c #677BBB",
"$.	c #6576AD",
"%.	c #121222",
"&.	c #080710",
"*.	c #2F3565",
"=.	c #4B63AE",
"-.	c #4E66B0",
";.	c #6D7FB8",
">.	c #090811",
",.	c #667ABA",
"'.	c #4F67AF",
").	c #6677AE",
"!.	c #131223",
"~.	c #09070F",
"{.	c #110F20",
"].	c #5F74B8",
"^.	c #5169B1",
"/.	c #647ABC",
"(.	c #5E6790",
"_.	c #434F92",
":.	c #5F74B9",
"<.	c #6677B0",
"[.	c #6B78A8",
"}.	c #6577B2",
"|.	c #19192D",
"1.	c #09080F",
"2.	c #0A080F",
"3.	c #09070E",
"4.	c #0F0D19",
"5.	c #171527",
"6.	c #18172A",
"7.	c #100F1B",
"8.	c #0A0810",
"9.	c #0D0D17",
"0.	c #5E72B6",
"a.	c #6778B0",
"b.	c #6C79A8",
"c.	c #6176B7",
"d.	c #353D6E",
"e.	c #131324",
"f.	c #394276",
"g.	c #373F70",
"h.	c #242745",
"i.	c #1B1C30",
"j.	c #1C1D33",
"k.	c #252846",
"l.	c #394376",
"m.	c #4F65B6",
"n.	c #6879B0",
"o.	c #6D7AA9",
"p.	c #6776AE",
"q.	c #6478B7",
"r.	c #5D73B7",
"s.	c #6879B6",
"t.	c #697BB6",
"u.	c #687BB9",
"v.	c #6177BA",
"w.	c #6979AF",
"x.	c #6C77A4",
"y.	c #6074B4",
"z.	c #6175B4",
"A.	c #6176B4",
"B.	c #6075B4",
"C.	c #6276B5",
"D.	c #6276B6",
"E.	c #6377B6",
"F.	c #6477B6",
"G.	c #6378B7",
"H.	c #6579B8",
"I.	c #657AB9",
"J.	c #667AB9",
"K.	c #677BBA",
"L.	c #5B72B8",
"M.	c #4B62AC",
"N.	c #4E65AF",
"O.	c #5268B0",
"P.	c #5268B1",
"Q.	c #4D67BC",
"R.	c #5B70B6",
"S.	c #5B71B6",
"T.	c #5E73B9",
"U.	c #5F75BA",
"V.	c #5D74C0",
"W.	c #5E75C0",
"X.	c #5B75C6",
". . . . . . . . . . . + + + + + + . . . . . . . . . . . ",
". . . . . . . . . + + + + + + + + + + . . . . . . . . . ",
". . . . . . . + + + + + + + + + + + + + + . . . . . . . ",
". . . . . . + + + + + + @ # $ % + + & + + + . . . . . . ",
". . . . . + + + + * = - ; > , ' ) ! ~ { + + + . . . . . ",
". . . . + + + + ] ^ / ( _ : < [ } | 1 2 + + + + . . . . ",
". . . . + + + + 3 4 5 6 + + + 7 8 9 0 a + + + + . . . . ",
". . . + + + + + b c d + + + + + e f g h + + + + + . . . ",
". . . + + + + + i j k l m n + + + + + + + + + + + . . . ",
". . . + + + + + o p q r s t u v w x + + + + + + + . . . ",
". . + + + + + + + y z A B C D E F G H + + + + + + + . . ",
". . + + + + + + + + + I J K L M N O P Q + + + + + + . . ",
". . R + + + + S T U V W X Y Z `  ...+.@.#.+ + + + + . . ",
". . R R + + + $.%.&.*.=.=.X X Y -.;.>.@.,.+ + + + + . . ",
". . . R + + '.).!.~.{.].-.Y -.^./.(.>._.:.+ + + + . . . ",
". . . R + <.[.}.|.1.2.3.4.5.6.7.8.9.0.@ + + + + + . . . ",
". . . R R a.b.c.d.e.f.g.h.i.j.k.l.m.+ + + + + + + . . . ",
". . . . R n.o.+ m p.q.r.q.s.t.u.v.+ + + + + + + . . . . ",
". . . . R w.x.y.z.A.B.z.C.D.E.F.G.q.H.I.J.K.L.+ . . . . ",
". . . . . R R M.M.M.M.N.O.P.Q.R.S.T.U.V.W.X.+ . . . . . ",
". . . . . . R R R + + + + + + + + + + + + + . . . . . . ",
". . . . . . . R R R R + + + + + + + + + + . . . . . . . ",
". . . . . . . . . R R R R + + + + + + . . . . . . . . . ",
". . . . . . . . . . . R R R R + + . . . . . . . . . . . "};
