/* XPM */
static char * suncpu_xpm[] = {
"55 45 7 1",
" 	c #bbbbbb",
".	c None",
",	c #ffffff",
"X	c #eeeeee",
"o	c #000000",
"O	c #336699",
"+	c #666666",
"                                    ...................",
" XXXXXXXXXXXXXXXXXXXXXXXXXXXXXXXXXX ...................",
" XXXXXXXXXXXXXXXXXXXXXXXXXXXXXXXXXX ...................",
" XX                              XX ...................",
" XX oooooooooooooooooooooooooooo XX ...................",
" XX oooooooooooooooooooooooooooo XX ...................",
" XX oooooooooooooooooooooooooooo XX ...................",
" XX oooooooooooooooooooooooooooo XX ...................",
" XX oooooooooooooooooooooooooooo XX ...................",
" XX oooooooooooooooooooooooooooo XX ...................",
" XX oooooooooooooooooooooooooooo XX ...................",
" XX oooooooooooooooooooooooooooo XX ...................",
" XX oooooooooooooooooooooooooooo XX ...................",
" XX oooooooooooooooooooooooooooo XX ...................",
" XX oooooooooooooooooooooooooooo XX ...................",
" XX oooooooooooooooooooooooooooo XX ...................",
" XX oooooooooooooooooooooooooooo XX ...................",
" XX oooooooooooooooooooooooooooo XX ......          ...",
" XX oooooooooooooooooooooooooooo XX ...... XXXXX XX ...",
" XX oooooooooooooooooooooooooooo XX ...... XXOXX XX ...",
" XX oooooooooooooooooooooooooooo XX ...... XOXOX XX ...",
" XX oooooooooooooooooooooooooooo XX ...... XXOXX XX ...",
" XX oooooooooooooooooooooooooooo XX ...... XXXXX XX ...",
" XX oooooooooooooooooooooooooooo XX ...... XXXXX XX ...",
" XX oooooooooooooooooooooooooooo XX ...... XXXXX XX ...",
" XX oooooooooooooooooooooooooooo XX .....O XXXXX +X ...",
" XX oooooooooooooooooooooooooooo XX .....O XXXXX +X ...",
" XX oooooooooooooooooooooooooooo XX .....O XXXXX +X ...",
" XX                              XX .....O XXXXX +X ...",
" XXXOXXXXXXXXXXXXXXXXXXXXXXXXXXXXXX ....OO XXXXX +X O..",
" XXOXOXXXXXXXXXXXXXXXXXXXXXXXXXXXXX ....OO XXXXX XX O..",
" XXXOXXXXXXXXXXXXXXXXXXXXXXXXXXXXXX ....OO XXXXX XX O..",
"                                    ....OO          O..",
"........................................OOOOOOOOOOOOO..",
".......................................................",
"                                    ...................",
" X,,X,,,,,,,,,,,,,,,,,,,X,,,X,,,,,X  ..OXOX    OXOXO...",
" X,,X,,,,,,,,,,,,,,,,,,,X,,,X,,,,,X .  XOX X       XO..",
" X,,X,,,,,,,,,,,,,,,,,,,X   X,,,,,X ..X   XO XXXXX OX..",
" X,,X,,,,,,,,,,,,,,,,,,,XX,XX,,,,,X ..OXOXOX X X X XO..",
" X,,X,,,,,,,,,,,,,,,,,,,X,,,X,,,,,X ..XOXOXO X X X OX..",
" X  X                   X   X     X ..OXOXOX XXXXX XO..",
" XXXXXXXXXXXXXXXXXXXXXXXXXXXXXXXXXX ..XOXOXO XXXXX OX..",
"                                    ..OXOXOX XXXXX XO..",
"OOOO...........................OOOOO...OXOXO       O..."};
