/* XPM */
static char * suse_xpm[] = {
"28 24 11 1",
" 	c None",
".	c #FFFFFF",
"+	c #B7DC93",
"@	c #6EB927",
"#	c #77BD35",
"$	c #92CB5D",
"%	c #80C242",
"&	c #AED886",
"*	c #89C650",
"=	c #9BCF6B",
"-	c #A5D378",
"............................",
"...+@@@@#$+.................",
"@$.+@@@@@@@@@$+.............",
"@@@@@@@@@@@@@@@%&...........",
"@@@@@@@@@@@@@@@@@@*.........",
"@@@@@@@@@@@@@@@$$@@@$.......",
"@@@@@@@@@@@@@=....&@@+......",
"@@@@@@@@@@@@-..@#&..@@......",
"@@@@@@@@@@@&.@@..-@..@......",
"@@@@@@@@@@@..@@...@+.@*.....",
"@@@@@@@@@@@..@@@@@@+.@@.....",
"@@@@@@@@@@@-.#@@@@@..@@&....",
"@@@@@@*@@@@#..@@@@&.%@@*....",
"@@@@@@-.@@@@*..$=..-@@@@....",
"@@@@@@@-...%@@@$#@@@@@#.....",
"@@@@@@@@-....=@@@@@@@+......",
"@@@@@@@@@@-....&$$$&...$....",
"@@@@@@@@@@@@%&.......%@*....",
"@@@@@@@@@@@@@@@=++-*@@@@....",
"@@@@@@@@@@@@@@@@@@@@@@$.....",
"@@@@@@@@@@@@@@@@@@@@$.......",
"@@$$#@@@@@@@@@@$&...........",
"*........++.................",
"............................"};
