/* XPM */
static char * suse_xpm[] = {
"28 24 139 2",
"  	c None",
". 	c #FFFFFF",
"+ 	c #F0F7E7",
"@ 	c #D8EBC3",
"# 	c #C3E1A2",
"$ 	c #B4DA8C",
"% 	c #AFD783",
"& 	c #B5DA8D",
"* 	c #D4E9BD",
"= 	c #E8F3DB",
"- 	c #F7FBF3",
"; 	c #F1F8E9",
"> 	c #DAECC6",
", 	c #EBF5E1",
"' 	c #F8FBF4",
") 	c #FDFFFD",
"! 	c #D9ECC5",
"~ 	c #8AC549",
"{ 	c #77BB2C",
"] 	c #73BA25",
"^ 	c #75BA29",
"/ 	c #81C03B",
"( 	c #96CB5D",
"_ 	c #98CC5F",
": 	c #7ABD30",
"< 	c #83C23F",
"[ 	c #97CB5E",
"} 	c #BCDD97",
"| 	c #DCEDC9",
"1 	c #E0EFCF",
"2 	c #ACD67E",
"3 	c #7DBF35",
"4 	c #9ECE68",
"5 	c #A7D377",
"6 	c #ADD680",
"7 	c #C3E1A3",
"8 	c #C4E2A5",
"9 	c #8BC54B",
"0 	c #78BC2E",
"a 	c #ACD67F",
"b 	c #BBDD96",
"c 	c #A2D16F",
"d 	c #E7F3DA",
"e 	c #B8DB91",
"f 	c #76BB2A",
"g 	c #73B925",
"h 	c #85C241",
"i 	c #86C343",
"j 	c #A9D479",
"k 	c #9FCF6A",
"l 	c #A4D272",
"m 	c #8FC751",
"n 	c #C9E4AB",
"o 	c #74BA28",
"p 	c #92C955",
"q 	c #B1D887",
"r 	c #B5DA8C",
"s 	c #A0D06C",
"t 	c #9ECF69",
"u 	c #D7EBC1",
"v 	c #E5F3D8",
"w 	c #8CC64C",
"x 	c #A5D273",
"y 	c #93C957",
"z 	c #74BA27",
"A 	c #78BB2D",
"B 	c #98CB5F",
"C 	c #ABD57B",
"D 	c #ABD57C",
"E 	c #DAECC5",
"F 	c #BBDD95",
"G 	c #DDEDCB",
"H 	c #CFE7B6",
"I 	c #CAE4AE",
"J 	c #DBEDC8",
"K 	c #7DBF36",
"L 	c #84C241",
"M 	c #93C958",
"N 	c #8FC74F",
"O 	c #88C346",
"P 	c #89C548",
"Q 	c #96CB5C",
"R 	c #D8EBC2",
"S 	c #FAFCF8",
"T 	c #9DCE66",
"U 	c #7FBF38",
"V 	c #D7EBC2",
"W 	c #A9D47A",
"X 	c #85C342",
"Y 	c #88C447",
"Z 	c #89C447",
"` 	c #CBE5AF",
" .	c #C2E0A0",
"..	c #73B926",
"+.	c #A4D171",
"@.	c #E4F1D5",
"#.	c #C4E3A4",
"$.	c #90C853",
"%.	c #77BC2B",
"&.	c #CBE5AE",
"*.	c #F5FAF0",
"=.	c #F1F8EA",
"-.	c #F1F7EA",
";.	c #95CA5A",
">.	c #88C446",
",.	c #C1E09F",
"'.	c #E2F1D3",
").	c #94CA59",
"!.	c #7BBD32",
"~.	c #DAECC7",
"{.	c #FDFEFC",
"].	c #AAD47B",
"^.	c #7DBE35",
"/.	c #CEE6B4",
"(.	c #8AC54A",
"_.	c #B3D988",
":.	c #C7E3A9",
"<.	c #81C13B",
"[.	c #E4F1D6",
"}.	c #C6E2A7",
"|.	c #B2D988",
"1.	c #D4E9BC",
"2.	c #7ABD31",
"3.	c #A1D06D",
"4.	c #CDE6B1",
"5.	c #CAE4AD",
"6.	c #D5EBBE",
"7.	c #B1D886",
"8.	c #ECF5E2",
"9.	c #E9F4DE",
"0.	c #F9FCF7",
"a.	c #F0F7E8",
"b.	c #F3F8ED",
"c.	c #BADD94",
"d.	c #84C240",
"e.	c #96CA5C",
"f.	c #91C854",
"g.	c #A8D479",
"h.	c #FCFDFA",
". . . . . . . . . . . . . . . . . . . . . . . . . . . . ",
". . . . . . . . . . . . . . . . . . . . . . . . . . . . ",
". . . . . . . . . . . . . . . . . . . . . . . . . . . . ",
". . . . . . . . . . . . . . . . . . . . . . . . . . . . ",
". . . . . . . . . . . . . . . . . . . . . . . . . . . . ",
". . . . . . . . . + @ # $ % % & # * = - ; > , ' . . . . ",
". . . . . . ) ! % ~ { ] ] ] ] ] ] ^ / ( _ : < [ } | . . ",
". . . . . 1 2 3 ] ] ] ] ] ] ] ] ] ] ] ] ] ] ] 4 5 6 7 . ",
". . . . 8 9 ] ] ] ] ] ] ] ] ] ] ] ] ] ] ] ] 0 a _ b c d ",
". . . e f ] ] ] ] ] ] ] ] ] ] ] ] ] ] ] g h i j k l m n ",
". . # o ] ] ] ] ] ] ] ] ] ] ] ] ] ] ] ] ] p q r % s t u ",
". v 9 ] w x 5 y z ] ] ] ] ] ] ] ] ] ] ] ] ] A B C D a E ",
". F ] x G H I J # < ] ] ] : K z ] ] ] L M N O P Q q R . ",
"S T U V W X Y Z `  ...] +.@ @.#.$.] %.&.' *.=.-.' . . . ",
"' ;.>.J i ,.'.C y = ).!.~.. . . J ;.{ * . . . . . . . . ",
"{.].^./.k (._.:.<.[.}.[ d . . . . E _ |.. . . . . . . . ",
". 1.2.3.4.5.6.7.>.8.. 9.0.. . . . . a.1.b.. . . . . . . ",
". . c.^.d.e.f.^ } . . . . . . . . . . . . . . . . . . . ",
". . . @ |.k g.&.. . . . . . . . . . . . . . . . . . . . ",
". . . . . h.{.. . . . . . . . . . . . . . . . . . . . . ",
". . . . . . . . . . . . . . . . . . . . . . . . . . . . ",
". . . . . . . . . . . . . . . . . . . . . . . . . . . . ",
". . . . . . . . . . . . . . . . . . . . . . . . . . . . ",
". . . . . . . . . . . . . . . . . . . . . . . . . . . . "};
