/* XPM */
static char* toaster_xpm[] = {
"55 45 16 1",
"_ c #ffffff",
"` c #efefef",
"a c #dedede",
"b c #cecece",
"c c #bdbdbd",
"d c #8c8c8c",
"e c #737373",
"f c #292929",
"g c #e7a59c",
"h c #ce3100",
"i c #de9c73",
"j c #9c4a18",
"k c #de7329",
"l c #a57318",
"m c #d62131",
"n c #000000",
"_______________________________________________________", 
"_______________________________________________________", 
"_______________________________________________________", 
"_______________________________________________________", 
"_______________________________________________________", 
"________________``_____________________________________", 
"_____________`aecdfg`fdgcceec__________________________", 
"____________`eg_`ejjd___`afjjjcedc`____________________", 
"___________ce_ajjhhk`a`ggjhhhjdccged`__________________", 
"_________`de`ijjhkbbabgmhhhkb`a`_`_ce__________________", 
"_________ebamjjlkgbbajhhhhdaaa```````e_________________", 
"________e`agjhkiaabbmhhhhcaba``debcaaae________________", 
"_______fcajjjigaaacjhhhfaaaa`adcccbabbde_______________", 
"______f``ijhjgaaabghhhjaa`daccca`_`__`bf_______________", 
"_____fb`bjhjg`a`bgmhhj```fdbb``````````ad`_____________", 
"_____d`ajjhi```acmhhk`_`edbb`````_`_```ada_____________", 
"____ee`ajhkl```aimhhc`_aebb````__`___``adc_____________", 
"____f``jjhi````amhhl`_`dec```________`a`ec_____________", 
"___ec``mhlg____gmhhe`_adca``________```beedc___________", 
"___fa_ajlkd___`imhj`__aeca_________``bccddffe__________", 
"___f`_gjhi`___amhhj`_`dbb`________`acccbcdfng__________", 
"___e``gjkb____bhhhe`_abca________abbbbbbcdnf___`cgenf__", 
"__c``gjhlc____ihhl`__acb________abaccbabbefa__fdefnffff", 
"__d``acgg`___`mhkl`_`dc`______`ababa```a`da_`ddfn__fdee", 
"__e`_________`bnne`_aeb`_____`acaba___``ae_dddf______ae", 
"__e`_____________`__bc`_____abcaaa____``dfnfn________ed", 
"__d`_______________`cc`____accba``____`cfnn__`cbb`__`de", 
"__d`_______________aeaa`_`ccca```____`cdf``_edfeffn`cfn", 
"__c_______________`bf````bcba```____`gdnnaaedfnnnnnnfn_", 
"__ba_aaa``_______`abe``abbbb```____adcnnfaadfn____n_nn_", 
"_g`b`abbbcbaaa``a`adc``cbbaa``____adennnn`cen_``_______", 
"_daba``````aabbbbbaec`bcc`a```___bden`fn__be_fdffnc____", 
"_ebbaaaaaaa````bcbcecbbcaaa``__`cdeeaaa___fe_efnnnnd___", 
"_fefnfe``ba`aaa`bcaeccccaa``__`cdfeaaa`____fffna__fnd__", 
"`fnnnnnnnnffb`aabcbecacaaa``_agdfdaaa_______nnn____ng__", 
"ffnnnnnnnnnnnnnneacegacaa``_adcfcaaa_______fnnnnd_eng__", 
"eeffffnnnnnnnnnffebfdbcab_`bdef`aa`_______enffnnnnnc___", 
"fnnffffffffffnnnneafcccb``cdefaaa`_______dnfffnnn`a____", 
"ennnnnnnnnnfffnnnfafcaab`cdffaaa`________nnfffnnnn_____", 
"_fdeeeefnnnnnnnnnfacc`aacgfeaaa`_________nffffnnnn_____", 
"_`beedddddddefnnnfacc`adcf`aaa___________nffffnnnn_____", 
"___`nnnnfeeddddddeccbaden`aaa____________nncdcgcfn_____", 
"__aafnnn_a``nnfegdddcden`aa`_____________eccjgjccd_____", 
"__`aaeff``aaaa`nnnnfnn_`aa`_______________fcjgjcf______", 
"___`aaaaaaaaaaaannnnn_`a``________________gnlflfd______"};
