/* XPM */
static char * ubuntu_xpm[] = {
"28 24 208 2",
"  	c None",
". 	c #FFFFFF",
"+ 	c #FEFCFC",
"@ 	c #F7D9CF",
"# 	c #EEAA93",
"$ 	c #E88562",
"% 	c #E36C43",
"& 	c #E16236",
"* 	c #E16134",
"= 	c #E2673D",
"- 	c #E57954",
"; 	c #EB997C",
"> 	c #F3C5B5",
", 	c #FDF4F1",
"' 	c #F7DBD1",
") 	c #EB997D",
"! 	c #E15F32",
"~ 	c #DC4814",
"{ 	c #DD4814",
"] 	c #DC4713",
"^ 	c #DD501F",
"/ 	c #E6805D",
"( 	c #F2BFAE",
"_ 	c #FEFBFA",
": 	c #FEFEFE",
"< 	c #F3BDAB",
"[ 	c #E36E45",
"} 	c #DD4B18",
"| 	c #DE5323",
"1 	c #EC9C80",
"2 	c #FAEBE6",
"3 	c #F0B39D",
"4 	c #DF592A",
"5 	c #DD4C19",
"6 	c #EB9577",
"7 	c #EFAF98",
"8 	c #E67A55",
"9 	c #E98D6D",
"0 	c #FAE9E3",
"a 	c #F3C1B0",
"b 	c #E05D30",
"c 	c #DE4F1D",
"d 	c #E05A2B",
"e 	c #E05B2D",
"f 	c #DF5423",
"g 	c #E57751",
"h 	c #FCF2EE",
"i 	c #F4C9BA",
"j 	c #EB9779",
"k 	c #FCF7F6",
"l 	c #F9E2DA",
"m 	c #E4744C",
"n 	c #DD4D1A",
"o 	c #E98C6B",
"p 	c #F3C5B4",
"q 	c #F8DDD4",
"r 	c #F9E0D7",
"s 	c #F4CABB",
"t 	c #EC9E82",
"u 	c #FEFEFD",
"v 	c #F3C0AF",
"w 	c #DE5120",
"x 	c #DD4E1C",
"y 	c #F1B59F",
"z 	c #FFFDFD",
"A 	c #ECA186",
"B 	c #E67C58",
"C 	c #ED9F85",
"D 	c #FEFDFD",
"E 	c #FEFBFB",
"F 	c #F2BBA9",
"G 	c #EDA288",
"H 	c #EDA187",
"I 	c #E36F47",
"J 	c #E57149",
"K 	c #F9E7E1",
"L 	c #F9E4DD",
"M 	c #E2673C",
"N 	c #E67D58",
"O 	c #FAE7E1",
"P 	c #E88967",
"Q 	c #EC9F84",
"R 	c #EA9475",
"S 	c #E98E6F",
"T 	c #EEA991",
"U 	c #F7D7CC",
"V 	c #F9E4DC",
"W 	c #F7D6CB",
"X 	c #DD4A17",
"Y 	c #F1B29D",
"Z 	c #F1BCA9",
"` 	c #DF5829",
" .	c #F4C8B9",
"..	c #F8DBD0",
"+.	c #E47048",
"@.	c #DD4915",
"#.	c #E26438",
"$.	c #F1B6A2",
"%.	c #FCF0EC",
"&.	c #E78360",
"*.	c #FDF7F6",
"=.	c #FFFEFE",
"-.	c #EB987B",
";.	c #E88664",
">.	c #FDF9F7",
",.	c #FCF3EF",
"'.	c #E88765",
").	c #E16033",
"!.	c #F5CCBD",
"~.	c #F2BFAD",
"{.	c #DE4E1C",
"].	c #E16235",
"^.	c #FAE6DF",
"/.	c #FCF6F4",
"(.	c #E0592A",
"_.	c #EC9B7E",
":.	c #EA9476",
"<.	c #FDF6F4",
"[.	c #EA9173",
"}.	c #FAE7E0",
"|.	c #E16337",
"1.	c #DF5424",
"2.	c #F7D6CA",
"3.	c #FDF2EF",
"4.	c #EC9B80",
"5.	c #F6D5C9",
"6.	c #EFAC95",
"7.	c #DD4815",
"8.	c #EEA88F",
"9.	c #EEA78D",
"0.	c #E15F31",
"a.	c #F4CCBE",
"b.	c #FCF2EF",
"c.	c #EC9B7F",
"d.	c #F6D5CA",
"e.	c #EEA68C",
"f.	c #EDA48A",
"g.	c #DD4F1D",
"h.	c #F4C9BB",
"i.	c #DE511F",
"j.	c #FEFBF9",
"k.	c #EC997C",
"l.	c #E16032",
"m.	c #F2BEAD",
"n.	c #F9E6DF",
"o.	c #F7D9CE",
"p.	c #E36E46",
"q.	c #DD4B17",
"r.	c #E26539",
"s.	c #FCF1ED",
"t.	c #E78361",
"u.	c #F9E5DF",
"v.	c #E2683D",
"w.	c #F8DFD6",
"x.	c #FAE6E0",
"y.	c #E88867",
"z.	c #EC9E83",
"A.	c #EA9374",
"B.	c #E98C6C",
"C.	c #EEA78E",
"D.	c #F6D6CA",
"E.	c #EDA48B",
"F.	c #F0B39E",
"G.	c #ECA288",
"H.	c #E67E5A",
"I.	c #E88B6A",
"J.	c #F2BDAA",
"K.	c #EDA58C",
"L.	c #EEA68E",
"M.	c #E36F46",
"N.	c #E4724A",
"O.	c #FAE9E2",
"P.	c #F9E3DC",
"Q.	c #E5754E",
"R.	c #E88A69",
"S.	c #F3C4B4",
"T.	c #EC9D82",
"U.	c #F3BFAE",
"V.	c #F0B5A0",
"W.	c #F3C2B1",
"X.	c #E05E30",
"Y.	c #E05C2D",
"Z.	c #DE5322",
"`.	c #FCF8F7",
" +	c #F1B5A1",
".+	c #E15C2E",
"++	c #EB9679",
"@+	c #EFB09A",
"#+	c #E57A54",
"$+	c #E99071",
"%+	c #FAECE7",
"&+	c #F2BEAC",
"*+	c #E46F46",
"=+	c #DE5424",
"-+	c #FBEFEB",
";+	c #F7DCD2",
">+	c #DC4915",
",+	c #DD501E",
"'+	c #E7815D",
")+	c #FDFDFD",
"!+	c #F8DACF",
"~+	c #EFAD96",
"{+	c #E78461",
"]+	c #E36B41",
"^+	c #E05F32",
"/+	c #E05E31",
"(+	c #E16539",
"_+	c #E57953",
". . . . . . . . + @ # $ % & * = - ; > , . . . . . . . . ",
". . . . . . . ' ) ! ~ { { { { { { ] ^ / ( _ . . . . . . ",
". . . . . : < [ ] { { { { { { { { { } { | 1 2 . . . . . ",
". . . . . 3 4 { { { { { { { { { 5 6 7 8 { ~ 9 0 . . . . ",
". . . . a b { { { { { { c d e f g h . i f { { j k . . . ",
". . . l m { { { { { n o p q r s t 0 u v w { { x y . . . ",
". . z A ~ { { { { B o C D E _ : F G H I { { { { J K . . ",
". . L M { { { { N q O P Q R S T U V W G } { { { X Y . . ",
". . Z 5 { { { `  .: ..+.} { { @.#.$.: %.&.{ { { ] &.*.. ",
". =.-.] { @.@.;.>.,.'.{ { { { { { ).!.: ~.{.{ { { ].^.. ",
". /.N { (._._.:.<.i w { { { { { { { [._ }.|.{ { { 1.2.. ",
". 3.J @.4.D D T 5.6.7.{ { { { { { { ].8.9.0.{ { { c a.. ",
". b.J @.c.u u T d.6.7.{ { { { { { { ].e.f.b { { { g.a.. ",
". /.N { (._.c.:.<.h.i.{ { { { { { { [.j.}.|.{ { { 1.2.. ",
". =.k.] { @.@.;.>.,.'.{ { { { { { l.!.=.m.{.{ { { ].n.. ",
". . < 5 { { { 4  .. o.p.q.{ { @.r.$.: s.&.{ { { { t.*.. ",
". . u.v.{ { { { N w.x.y.z.A.B.C.D.L ' E.5 { { { X F.. . ",
". . z G.~ { { { { H.I.z.+ + _ u J.K.L.M.{ { { { N.O.. . ",
". . . P.Q.{ { { { { n R.S.q r  .T.O.: U.w { { g.V.. . . ",
". . . . W.X.{ { { { { { c d Y.Z.g b.:  .1.{ ~ ; `.. . . ",
". . . . .  +.+{ { { { { { { { { } ++@+#+{ @.$+%+. . . . ",
". . . . . =.&+*+] { { { { { { { { @.} { =+z.-+. . . . . ",
". . . . . . . ;+c.b >+{ { { { { { ] ,+'+W._ . . . . . . ",
". . . . . . . . )+!+~+{+]+^+/+(+_+1 > b.. . . . . . . . "};
