/* XPM */
static char * ubuntu_xpm[] = {
"28 24 109 2",
"  	c None",
". 	c #FFFFFF",
"+ 	c #DD4814",
"@ 	c #F7D7CA",
"# 	c #FBE7DF",
"$ 	c #F0AB90",
"% 	c #E16032",
"& 	c #ED9E81",
"* 	c #ED9F82",
"= 	c #EC9775",
"- 	c #FEFFFF",
"; 	c #F9DDD1",
"> 	c #F5C6B2",
", 	c #FDF6F4",
"' 	c #FEFAF8",
") 	c #FEFBFA",
"! 	c #FBE6DD",
"~ 	c #F0A585",
"{ 	c #F5CCBA",
"] 	c #FBE5DB",
"^ 	c #F6CDBC",
"/ 	c #EFA589",
"( 	c #EEA081",
"_ 	c #FEFDFA",
": 	c #FBE9E0",
"< 	c #FAE1D5",
"[ 	c #F1AC8E",
"} 	c #EF9F7D",
"| 	c #F5C7B5",
"1 	c #FFFEFE",
"2 	c #FCEBE3",
"3 	c #F3B8A0",
"4 	c #FDFAF7",
"5 	c #FEFBF9",
"6 	c #F5C9B8",
"7 	c #EC9575",
"8 	c #FDF9F8",
"9 	c #FEFDFC",
"0 	c #EEA587",
"a 	c #ED9F81",
"b 	c #FEFCFB",
"c 	c #FDFAF9",
"d 	c #EC9C7F",
"e 	c #F6D0C0",
"f 	c #F5C8B5",
"g 	c #F5C6B3",
"h 	c #F8D8CB",
"i 	c #E67B54",
"j 	c #F6CAB8",
"k 	c #EFA386",
"l 	c #F3BEA9",
"m 	c #E36A3E",
"n 	c #E05C2D",
"o 	c #FDF5F1",
"p 	c #FAE2D7",
"q 	c #F9E1D7",
"r 	c #FAE6DE",
"s 	c #F0A78A",
"t 	c #FCEFE9",
"u 	c #F0A586",
"v 	c #EF9F7E",
"w 	c #F6CBB9",
"x 	c #F7D3C3",
"y 	c #F0AB8F",
"z 	c #FDF2EE",
"A 	c #F5C7B3",
"B 	c #F3BAA2",
"C 	c #E26235",
"D 	c #EEA488",
"E 	c #EEA386",
"F 	c #FBE8E0",
"G 	c #F3BEA7",
"H 	c #FBE8DF",
"I 	c #FAE5DD",
"J 	c #FFFFFE",
"K 	c #F4C1AC",
"L 	c #FDF2ED",
"M 	c #F7D4C6",
"N 	c #F7D2C3",
"O 	c #FDF3EF",
"P 	c #EB9879",
"Q 	c #DD4915",
"R 	c #F1B096",
"S 	c #EB8F6D",
"T 	c #E7845E",
"U 	c #F3B9A2",
"V 	c #FCEFE8",
"W 	c #FAE3D9",
"X 	c #F9DACC",
"Y 	c #EE9F81",
"Z 	c #E67E57",
"` 	c #DF5423",
" .	c #F2BCA6",
"..	c #F1B39B",
"+.	c #EE9D7D",
"@.	c #EEA082",
"#.	c #EFA98D",
"$.	c #F7D5C8",
"%.	c #FAE2D8",
"&.	c #FAE4DB",
"*.	c #F3BDA8",
"=.	c #EC9979",
"-.	c #FDF8F4",
";.	c #F5C7B4",
">.	c #E46E44",
",.	c #FDF6F3",
"'.	c #F6D2C5",
").	c #EFA68A",
"!.	c #F3BCA7",
". . . . . . . . . . . + + + + + + . . . . . . . . . . . ",
". . . . . . . . . + + + + + + + + + + . . . . . . . . . ",
". . . . . . . + + + + + + + + + + + + + + . . . . . . . ",
". . . . . . + + + + + + + + + + + @ # $ + + . . . . . . ",
". . . . . + + + + + + + % & * + = - . ; + + + . . . . . ",
". . . . + + + + + + + > , ' ) ! ~ { ] & + + + + . . . . ",
". . . . + + + + + ^ / ( _ : : ' < [ } + + + + + . . . . ",
". . . + + + + + | 1 2 + + + + + 3 4 5 6 + + + + + . . . ",
". . . + + + + 7 8 9 0 + + + + + + a b c d + + + + . . . ",
". . . + + + + e . f + + + + + + + + g . h + + + + . . . ",
". . + + i j k l b m + + + + + + + + n o p + + + + + . . ",
". . + + q . r s t + + + + + + + + + + u v + + + + + . . ",
". . + + w . x y z + + + + + + + + + + A B + + + + + . . ",
". . + + + C + e . D + + + + + + + + E . F + + + + + . . ",
". . . + + + + G 1 H + + + + + + + + I J K + + + + . . . ",
". . . + + + + + L . M + + + + + + N . O + + + + + . . . ",
". . . + + + + + P ) ^ Q R S T U V W X Y + + + + + . . . ",
". . . . + + + + + Z `  .. . . . ..+.@.+ + + + + . . . . ",
". . . . + + + + + + + #.$.%.&.*.=.-.. ;.+ + + + . . . . ",
". . . . . + + + + + + + + + + + >.,.. '.+ + + . . . . . ",
". . . . . . + + + + + + + + + + + ).!.+ + + . . . . . . ",
". . . . . . . + + + + + + + + + + + + + + . . . . . . . ",
". . . . . . . . . + + + + + + + + + + . . . . . . . . . ",
". . . . . . . . . . . + + + + + + . . . . . . . . . . . "};
