#define hand_down_width 16
#define hand_down_height 16
static char hand_down_bits[] = {
 0x00,0x00,0xc0,0x01,0x22,0x23,0x24,0x14,0x20,0x04,0x20,0x08,0x30,0x08,0x2b,
 0x68,0x28,0x08,0x28,0x08,0x08,0x08,0x08,0x08,0x10,0x04,0x24,0x14,0x22,0x24,
 0x00,0x00};
