#define hand_up_mask_width 16
#define hand_up_mask_height 16
static char hand_up_mask_bits[] = {
   0x80, 0x03, 0xe0, 0x07, 0xe0, 0x1f, 0xe0, 0x3f, 0xe0, 0x3f, 0xf0, 0x3f,
   0xf8, 0x3f, 0xf8, 0x3f, 0xf8, 0x3f, 0xf8, 0x3f, 0xf8, 0x3f, 0xf8, 0x3f,
   0xf0, 0x3f, 0xe0, 0x1f, 0xc0, 0x1f, 0xc0, 0x1f};
